<?xml version="1.0" encoding="us-ascii" standalone="no"?><svg xmlns="http://www.w3.org/2000/svg" xmlns:xlink="http://www.w3.org/1999/xlink" contentStyleType="text/css" height="1355.2083px" preserveAspectRatio="none" style="width:1062px;height:1355px;" version="1.1" viewBox="0 0 1062 1355" width="1062.5px" zoomAndPan="magnify"><defs><linearGradient id="gxzlhuoedb1qm0" x1="50%" x2="50%" y1="0%" y2="100%"><stop offset="0%" stop-color="#EDF0F2"/><stop offset="100%" stop-color="#E9ECEF"/></linearGradient></defs><g><rect fill="url(#gxzlhuoedb1qm0)" height="45.8008" rx="4.1667" ry="4.1667" style="stroke:#E9ECEF;stroke-width:1.0416666666666667;" width="167.7083" x="10.4167" y="653.8574"/><text fill="#343A40" font-family="Verdana" font-size="12.5" lengthAdjust="spacing" textLength="136.4583" x="26.0417" y="681.0852">Emoji Usage Analysis</text><rect fill="url(#gxzlhuoedb1qm0)" height="45.8008" rx="4.1667" ry="4.1667" style="stroke:#E9ECEF;stroke-width:1.0416666666666667;" width="302.0833" x="230.2083" y="187.4186"/><text fill="#343A40" font-family="Verdana" font-size="12.5" lengthAdjust="spacing" textLength="270.8333" x="245.8333" y="214.6464">Phase 1: Data Collection and Preparation</text><rect fill="url(#gxzlhuoedb1qm0)" height="45.8008" rx="4.1667" ry="4.1667" style="stroke:#E9ECEF;stroke-width:1.0416666666666667;" width="123.9583" x="584.375" y="54.1504"/><text fill="#343A40" font-family="Verdana" font-size="12.5" lengthAdjust="spacing" textLength="92.7083" x="600" y="81.3782">Data Sourcing</text><rect fill="url(#gxzlhuoedb1qm0)" height="45.8008" rx="4.1667" ry="4.1667" style="stroke:#E9ECEF;stroke-width:1.0416666666666667;" width="131.25" x="760.4167" y="20.8333"/><text fill="#343A40" font-family="Verdana" font-size="12.5" lengthAdjust="spacing" textLength="100" x="776.0417" y="48.0611">Collect Dataset</text><path d="M708.3333,77.0508 L718.75,77.0508 C734.375,77.0508 734.375,43.7337 750,43.7337 L760.4167,43.7337 " fill="none" style="stroke:#2FA4E7;stroke-width:3.125;"/><rect fill="url(#gxzlhuoedb1qm0)" height="45.8008" rx="4.1667" ry="4.1667" style="stroke:#E9ECEF;stroke-width:1.0416666666666667;" width="144.7917" x="760.4167" y="87.4674"/><text fill="#343A40" font-family="Verdana" font-size="12.5" lengthAdjust="spacing" textLength="113.5417" x="776.0417" y="114.6952">Focus Categories</text><path d="M708.3333,77.0508 L718.75,77.0508 C734.375,77.0508 734.375,110.3678 750,110.3678 L760.4167,110.3678 " fill="none" style="stroke:#2FA4E7;stroke-width:3.125;"/><path d="M532.2917,210.319 L542.7083,210.319 C558.3333,210.319 558.3333,77.0508 573.9583,77.0508 L584.375,77.0508 " fill="none" style="stroke:#2FA4E7;stroke-width:3.125;"/><rect fill="url(#gxzlhuoedb1qm0)" height="45.8008" rx="4.1667" ry="4.1667" style="stroke:#E9ECEF;stroke-width:1.0416666666666667;" width="122.9167" x="584.375" y="187.4186"/><text fill="#343A40" font-family="Verdana" font-size="12.5" lengthAdjust="spacing" textLength="91.6667" x="600" y="214.6464">Data Cleaning</text><rect fill="url(#gxzlhuoedb1qm0)" height="45.8008" rx="4.1667" ry="4.1667" style="stroke:#E9ECEF;stroke-width:1.0416666666666667;" width="212.5" x="759.375" y="154.1016"/><text fill="#343A40" font-family="Verdana" font-size="12.5" lengthAdjust="spacing" textLength="181.25" x="775" y="181.3293">Remove Irrelevant Elements</text><path d="M707.2917,210.319 L717.7083,210.319 C733.3333,210.319 733.3333,177.002 748.9583,177.002 L759.375,177.002 " fill="none" style="stroke:#2FA4E7;stroke-width:3.125;"/><rect fill="url(#gxzlhuoedb1qm0)" height="45.8008" rx="4.1667" ry="4.1667" style="stroke:#E9ECEF;stroke-width:1.0416666666666667;" width="125" x="759.375" y="220.7357"/><text fill="#343A40" font-family="Verdana" font-size="12.5" lengthAdjust="spacing" textLength="93.75" x="775" y="247.9635">Normalize Text</text><path d="M707.2917,210.319 L717.7083,210.319 C733.3333,210.319 733.3333,243.6361 748.9583,243.6361 L759.375,243.6361 " fill="none" style="stroke:#2FA4E7;stroke-width:3.125;"/><path d="M532.2917,210.319 L542.7083,210.319 C558.3333,210.319 558.3333,210.319 573.9583,210.319 L584.375,210.319 " fill="none" style="stroke:#2FA4E7;stroke-width:3.125;"/><rect fill="url(#gxzlhuoedb1qm0)" height="45.8008" rx="4.1667" ry="4.1667" style="stroke:#E9ECEF;stroke-width:1.0416666666666667;" width="158.3333" x="584.375" y="320.6868"/><text fill="#343A40" font-family="Verdana" font-size="12.5" lengthAdjust="spacing" textLength="127.0833" x="600" y="347.9146">Data Segmentation</text><rect fill="url(#gxzlhuoedb1qm0)" height="45.8008" rx="4.1667" ry="4.1667" style="stroke:#E9ECEF;stroke-width:1.0416666666666667;" width="215.625" x="794.7917" y="287.3698"/><text fill="#343A40" font-family="Verdana" font-size="12.5" lengthAdjust="spacing" textLength="184.375" x="810.4167" y="314.5976">Categorize by Product Types</text><path d="M742.7083,343.5872 L753.125,343.5872 C768.75,343.5872 768.75,310.2702 784.375,310.2702 L794.7917,310.2702 " fill="none" style="stroke:#2FA4E7;stroke-width:3.125;"/><rect fill="url(#gxzlhuoedb1qm0)" height="45.8008" rx="4.1667" ry="4.1667" style="stroke:#E9ECEF;stroke-width:1.0416666666666667;" width="196.875" x="794.7917" y="354.0039"/><text fill="#343A40" font-family="Verdana" font-size="12.5" lengthAdjust="spacing" textLength="165.625" x="810.4167" y="381.2317">Balanced Representation</text><path d="M742.7083,343.5872 L753.125,343.5872 C768.75,343.5872 768.75,376.9043 784.375,376.9043 L794.7917,376.9043 " fill="none" style="stroke:#2FA4E7;stroke-width:3.125;"/><path d="M532.2917,210.319 L542.7083,210.319 C558.3333,210.319 558.3333,343.5872 573.9583,343.5872 L584.375,343.5872 " fill="none" style="stroke:#2FA4E7;stroke-width:3.125;"/><path d="M178.125,676.7578 L188.5417,676.7578 C204.1667,676.7578 204.1667,210.319 219.7917,210.319 L230.2083,210.319 " fill="none" style="stroke:#2FA4E7;stroke-width:3.125;"/><rect fill="url(#gxzlhuoedb1qm0)" height="45.8008" rx="4.1667" ry="4.1667" style="stroke:#E9ECEF;stroke-width:1.0416666666666667;" width="183.3333" x="230.2083" y="520.5892"/><text fill="#343A40" font-family="Verdana" font-size="12.5" lengthAdjust="spacing" textLength="152.0833" x="245.8333" y="547.817">Phase 2: Emoji Analysis</text><rect fill="url(#gxzlhuoedb1qm0)" height="45.8008" rx="4.1667" ry="4.1667" style="stroke:#E9ECEF;stroke-width:1.0416666666666667;" width="155.2083" x="465.625" y="453.9551"/><text fill="#343A40" font-family="Verdana" font-size="12.5" lengthAdjust="spacing" textLength="123.9583" x="481.25" y="481.1829">Frequency Analysis</text><rect fill="url(#gxzlhuoedb1qm0)" height="45.8008" rx="4.1667" ry="4.1667" style="stroke:#E9ECEF;stroke-width:1.0416666666666667;" width="180.2083" x="672.9167" y="420.638"/><text fill="#343A40" font-family="Verdana" font-size="12.5" lengthAdjust="spacing" textLength="148.9583" x="688.5417" y="447.8658">Count Emoji Frequency</text><path d="M620.8333,476.8555 L631.25,476.8555 C646.875,476.8555 646.875,443.5384 662.5,443.5384 L672.9167,443.5384 " fill="none" style="stroke:#2FA4E7;stroke-width:3.125;"/><rect fill="url(#gxzlhuoedb1qm0)" height="45.8008" rx="4.1667" ry="4.1667" style="stroke:#E9ECEF;stroke-width:1.0416666666666667;" width="145.8333" x="672.9167" y="487.2721"/><text fill="#343A40" font-family="Verdana" font-size="12.5" lengthAdjust="spacing" textLength="114.5833" x="688.5417" y="514.4999">Categorize Emojis</text><path d="M620.8333,476.8555 L631.25,476.8555 C646.875,476.8555 646.875,510.1725 662.5,510.1725 L672.9167,510.1725 " fill="none" style="stroke:#2FA4E7;stroke-width:3.125;"/><path d="M413.5417,543.4896 L423.9583,543.4896 C439.5833,543.4896 439.5833,476.8555 455.2083,476.8555 L465.625,476.8555 " fill="none" style="stroke:#2FA4E7;stroke-width:3.125;"/><rect fill="url(#gxzlhuoedb1qm0)" height="45.8008" rx="4.1667" ry="4.1667" style="stroke:#E9ECEF;stroke-width:1.0416666666666667;" width="161.4583" x="465.625" y="587.2233"/><text fill="#343A40" font-family="Verdana" font-size="12.5" lengthAdjust="spacing" textLength="130.2083" x="481.25" y="614.4511">Pattern Recognition</text><rect fill="url(#gxzlhuoedb1qm0)" height="45.8008" rx="4.1667" ry="4.1667" style="stroke:#E9ECEF;stroke-width:1.0416666666666667;" width="184.375" x="679.1667" y="553.9063"/><text fill="#343A40" font-family="Verdana" font-size="12.5" lengthAdjust="spacing" textLength="153.125" x="694.7917" y="581.134">Identify Usage Patterns</text><path d="M627.0833,610.1237 L637.5,610.1237 C653.125,610.1237 653.125,576.8066 668.75,576.8066 L679.1667,576.8066 " fill="none" style="stroke:#2FA4E7;stroke-width:3.125;"/><rect fill="url(#gxzlhuoedb1qm0)" height="45.8008" rx="4.1667" ry="4.1667" style="stroke:#E9ECEF;stroke-width:1.0416666666666667;" width="161.4583" x="679.1667" y="620.5404"/><text fill="#343A40" font-family="Verdana" font-size="12.5" lengthAdjust="spacing" textLength="130.2083" x="694.7917" y="647.7681">Detect Associations</text><path d="M627.0833,610.1237 L637.5,610.1237 C653.125,610.1237 653.125,643.4408 668.75,643.4408 L679.1667,643.4408 " fill="none" style="stroke:#2FA4E7;stroke-width:3.125;"/><path d="M413.5417,543.4896 L423.9583,543.4896 C439.5833,543.4896 439.5833,610.1237 455.2083,610.1237 L465.625,610.1237 " fill="none" style="stroke:#2FA4E7;stroke-width:3.125;"/><path d="M178.125,676.7578 L188.5417,676.7578 C204.1667,676.7578 204.1667,543.4896 219.7917,543.4896 L230.2083,543.4896 " fill="none" style="stroke:#2FA4E7;stroke-width:3.125;"/><rect fill="url(#gxzlhuoedb1qm0)" height="45.8008" rx="4.1667" ry="4.1667" style="stroke:#E9ECEF;stroke-width:1.0416666666666667;" width="343.75" x="230.2083" y="787.1257"/><text fill="#343A40" font-family="Verdana" font-size="12.5" lengthAdjust="spacing" textLength="312.5" x="245.8333" y="814.3534">Phase 3: Comparative Analysis and Visualization</text><rect fill="url(#gxzlhuoedb1qm0)" height="45.8008" rx="4.1667" ry="4.1667" style="stroke:#E9ECEF;stroke-width:1.0416666666666667;" width="153.125" x="626.0417" y="720.4915"/><text fill="#343A40" font-family="Verdana" font-size="12.5" lengthAdjust="spacing" textLength="121.875" x="641.6667" y="747.7193">Comparative Study</text><rect fill="url(#gxzlhuoedb1qm0)" height="45.8008" rx="4.1667" ry="4.1667" style="stroke:#E9ECEF;stroke-width:1.0416666666666667;" width="203.125" x="831.25" y="687.1745"/><text fill="#343A40" font-family="Verdana" font-size="12.5" lengthAdjust="spacing" textLength="171.875" x="846.875" y="714.4023">Analyze Usage Differences</text><path d="M779.1667,743.3919 L789.5833,743.3919 C805.2083,743.3919 805.2083,710.0749 820.8333,710.0749 L831.25,710.0749 " fill="none" style="stroke:#2FA4E7;stroke-width:3.125;"/><rect fill="url(#gxzlhuoedb1qm0)" height="45.8008" rx="4.1667" ry="4.1667" style="stroke:#E9ECEF;stroke-width:1.0416666666666667;" width="218.75" x="831.25" y="753.8086"/><text fill="#343A40" font-family="Verdana" font-size="12.5" lengthAdjust="spacing" textLength="187.5" x="846.875" y="781.0364">Examine Predominant Emojis</text><path d="M779.1667,743.3919 L789.5833,743.3919 C805.2083,743.3919 805.2083,776.709 820.8333,776.709 L831.25,776.709 " fill="none" style="stroke:#2FA4E7;stroke-width:3.125;"/><path d="M573.9583,810.026 L584.375,810.026 C600,810.026 600,743.3919 615.625,743.3919 L626.0417,743.3919 " fill="none" style="stroke:#2FA4E7;stroke-width:3.125;"/><rect fill="url(#gxzlhuoedb1qm0)" height="45.8008" rx="4.1667" ry="4.1667" style="stroke:#E9ECEF;stroke-width:1.0416666666666667;" width="146.875" x="626.0417" y="853.7598"/><text fill="#343A40" font-family="Verdana" font-size="12.5" lengthAdjust="spacing" textLength="115.625" x="641.6667" y="880.9875">Data Visualization</text><rect fill="url(#gxzlhuoedb1qm0)" height="45.8008" rx="4.1667" ry="4.1667" style="stroke:#E9ECEF;stroke-width:1.0416666666666667;" width="193.75" x="825" y="820.4427"/><text fill="#343A40" font-family="Verdana" font-size="12.5" lengthAdjust="spacing" textLength="162.5" x="840.625" y="847.6705">Bar Charts for Frequency</text><path d="M772.9167,876.6602 L783.3333,876.6602 C798.9583,876.6602 798.9583,843.3431 814.5833,843.3431 L825,843.3431 " fill="none" style="stroke:#2FA4E7;stroke-width:3.125;"/><rect fill="url(#gxzlhuoedb1qm0)" height="45.8008" rx="4.1667" ry="4.1667" style="stroke:#E9ECEF;stroke-width:1.0416666666666667;" width="183.3333" x="825" y="887.0768"/><text fill="#343A40" font-family="Verdana" font-size="12.5" lengthAdjust="spacing" textLength="152.0833" x="840.625" y="914.3046">Heat Maps for Patterns</text><path d="M772.9167,876.6602 L783.3333,876.6602 C798.9583,876.6602 798.9583,909.9772 814.5833,909.9772 L825,909.9772 " fill="none" style="stroke:#2FA4E7;stroke-width:3.125;"/><path d="M573.9583,810.026 L584.375,810.026 C600,810.026 600,876.6602 615.625,876.6602 L626.0417,876.6602 " fill="none" style="stroke:#2FA4E7;stroke-width:3.125;"/><path d="M178.125,676.7578 L188.5417,676.7578 C204.1667,676.7578 204.1667,810.026 219.7917,810.026 L230.2083,810.026 " fill="none" style="stroke:#2FA4E7;stroke-width:3.125;"/><rect fill="url(#gxzlhuoedb1qm0)" height="45.8008" rx="4.1667" ry="4.1667" style="stroke:#E9ECEF;stroke-width:1.0416666666666667;" width="287.5" x="230.2083" y="1053.6621"/><text fill="#343A40" font-family="Verdana" font-size="12.5" lengthAdjust="spacing" textLength="256.25" x="245.8333" y="1080.8899">Phase 4: Interpretation and Conclusion</text><rect fill="url(#gxzlhuoedb1qm0)" height="45.8008" rx="4.1667" ry="4.1667" style="stroke:#E9ECEF;stroke-width:1.0416666666666667;" width="157.2917" x="569.7917" y="987.028"/><text fill="#343A40" font-family="Verdana" font-size="12.5" lengthAdjust="spacing" textLength="126.0417" x="585.4167" y="1014.2558">Data Interpretation</text><rect fill="url(#gxzlhuoedb1qm0)" height="45.8008" rx="4.1667" ry="4.1667" style="stroke:#E9ECEF;stroke-width:1.0416666666666667;" width="235.4167" x="779.1667" y="953.7109"/><text fill="#343A40" font-family="Verdana" font-size="12.5" lengthAdjust="spacing" textLength="204.1667" x="794.7917" y="980.9387">Examine Emotional Undertones</text><path d="M727.0833,1009.9284 L737.5,1009.9284 C753.125,1009.9284 753.125,976.6113 768.75,976.6113 L779.1667,976.6113 " fill="none" style="stroke:#2FA4E7;stroke-width:3.125;"/><rect fill="url(#gxzlhuoedb1qm0)" height="45.8008" rx="4.1667" ry="4.1667" style="stroke:#E9ECEF;stroke-width:1.0416666666666667;" width="226.0417" x="779.1667" y="1020.3451"/><text fill="#343A40" font-family="Verdana" font-size="12.5" lengthAdjust="spacing" textLength="194.7917" x="794.7917" y="1047.5728">Interpret Customer Sentiment</text><path d="M727.0833,1009.9284 L737.5,1009.9284 C753.125,1009.9284 753.125,1043.2454 768.75,1043.2454 L779.1667,1043.2454 " fill="none" style="stroke:#2FA4E7;stroke-width:3.125;"/><path d="M517.7083,1076.5625 L528.125,1076.5625 C543.75,1076.5625 543.75,1009.9284 559.375,1009.9284 L569.7917,1009.9284 " fill="none" style="stroke:#2FA4E7;stroke-width:3.125;"/><rect fill="url(#gxzlhuoedb1qm0)" height="45.8008" rx="4.1667" ry="4.1667" style="stroke:#E9ECEF;stroke-width:1.0416666666666667;" width="102.0833" x="569.7917" y="1120.2962"/><text fill="#343A40" font-family="Verdana" font-size="12.5" lengthAdjust="spacing" textLength="70.8333" x="585.4167" y="1147.524">Conclusion</text><rect fill="url(#gxzlhuoedb1qm0)" height="45.8008" rx="4.1667" ry="4.1667" style="stroke:#E9ECEF;stroke-width:1.0416666666666667;" width="222.9167" x="723.9583" y="1086.9792"/><text fill="#343A40" font-family="Verdana" font-size="12.5" lengthAdjust="spacing" textLength="191.6667" x="739.5833" y="1114.2069">Determine Usage Differences</text><path d="M671.875,1143.1966 L682.2917,1143.1966 C697.9167,1143.1966 697.9167,1109.8796 713.5417,1109.8796 L723.9583,1109.8796 " fill="none" style="stroke:#2FA4E7;stroke-width:3.125;"/><rect fill="url(#gxzlhuoedb1qm0)" height="45.8008" rx="4.1667" ry="4.1667" style="stroke:#E9ECEF;stroke-width:1.0416666666666667;" width="189.5833" x="723.9583" y="1153.6133"/><text fill="#343A40" font-family="Verdana" font-size="12.5" lengthAdjust="spacing" textLength="158.3333" x="739.5833" y="1180.8411">Assess Emotional Depth</text><path d="M671.875,1143.1966 L682.2917,1143.1966 C697.9167,1143.1966 697.9167,1176.5137 713.5417,1176.5137 L723.9583,1176.5137 " fill="none" style="stroke:#2FA4E7;stroke-width:3.125;"/><path d="M517.7083,1076.5625 L528.125,1076.5625 C543.75,1076.5625 543.75,1143.1966 559.375,1143.1966 L569.7917,1143.1966 " fill="none" style="stroke:#2FA4E7;stroke-width:3.125;"/><path d="M178.125,676.7578 L188.5417,676.7578 C204.1667,676.7578 204.1667,1076.5625 219.7917,1076.5625 L230.2083,1076.5625 " fill="none" style="stroke:#2FA4E7;stroke-width:3.125;"/><rect fill="url(#gxzlhuoedb1qm0)" height="45.8008" rx="4.1667" ry="4.1667" style="stroke:#E9ECEF;stroke-width:1.0416666666666667;" width="156.25" x="230.2083" y="1253.5645"/><text fill="#343A40" font-family="Verdana" font-size="12.5" lengthAdjust="spacing" textLength="125" x="245.8333" y="1280.7922">Phase 5: Reporting</text><rect fill="url(#gxzlhuoedb1qm0)" height="45.8008" rx="4.1667" ry="4.1667" style="stroke:#E9ECEF;stroke-width:1.0416666666666667;" width="156.25" x="438.5417" y="1220.2474"/><text fill="#343A40" font-family="Verdana" font-size="12.5" lengthAdjust="spacing" textLength="125" x="454.1667" y="1247.4752">Document Findings</text><path d="M386.4583,1276.4648 L396.875,1276.4648 C412.5,1276.4648 412.5,1243.1478 428.125,1243.1478 L438.5417,1243.1478 " fill="none" style="stroke:#2FA4E7;stroke-width:3.125;"/><rect fill="url(#gxzlhuoedb1qm0)" height="45.8008" rx="4.1667" ry="4.1667" style="stroke:#E9ECEF;stroke-width:1.0416666666666667;" width="219.7917" x="438.5417" y="1286.8815"/><text fill="#343A40" font-family="Verdana" font-size="12.5" lengthAdjust="spacing" textLength="188.5417" x="454.1667" y="1314.1093">Include Diagrams and Charts</text><path d="M386.4583,1276.4648 L396.875,1276.4648 C412.5,1276.4648 412.5,1309.7819 428.125,1309.7819 L438.5417,1309.7819 " fill="none" style="stroke:#2FA4E7;stroke-width:3.125;"/><path d="M178.125,676.7578 L188.5417,676.7578 C204.1667,676.7578 204.1667,1276.4648 219.7917,1276.4648 L230.2083,1276.4648 " fill="none" style="stroke:#2FA4E7;stroke-width:3.125;"/><!--SRC=[xHfTRzkszbd-5TooXos0Eqko7TiOXlfBRNQJ8aZItiSBHg8TBRBeaLHIto7_VOSK9L4I7RUhruUX10f4F8Vd-ukiNtE1cTZ4QRJ1syvtufvi20e9onA2qyufMcxexp5wp_6Qe6cAansFUUVq55tTOqwGEq4BB32QqoGXeOXfYd0QeIj6jfXX-GsufpdE3SrO6AThkNDQd50WJaI-6T0musYE1LbJ5XDU7PvBSSh3rsH37mawPumav16d0YqJa3iLF8U_eso3a_Z_1DsIZy8GWQmbLYdOQSaBKEzs83UDCX3gThSbcjGC9pWDIGGyjunmuxGsWJVHDZAi0vemyaT6qd1NsvPgPr9QTQ34QOcYu3cXAom4OIcm3-awZIl9poEG9Lxjj6yqdcQp848QTyev3MCbiE4qVm9YR787FLPULPxx4FDCMgxodObw8x98IwjEWQWvzqMyMX46kXHcMtx445D4Ha94uIzSQ6tujCLBMfkX-Jq494ShofeMUakmG9TucmCDZRLY_GawJs4F79LxIQaqfscOPBmMYtMqkiWWfjp42NgVHeG9cXPAbQVGFEE2RWY3Y08do9ZIjZ9PvMvWYkWUCu632ES6omNPYljAey54nXrbGeS-Ma26I7OeW8o5pToSvv9j9EdZDSERt9Mv7Jkl2QIsJk_Ewrgsm-8FSIhTkq5tE7nOCmZF258Jp2iOJZc0f6uLLiR93Ans8tO9GIkSSDB9rozSRltQGOXHAj2Vy0S2T-wdAU41JKKEEGc2G6szXTHZ5t7wKEmlpfPkNu5Wb-XTRpZoP-Doz_O-3XzIQKbNxLrYjevJvFRKrnMEfAdGK7tTtEE8FidltYi9VuP_AGNZAP4BN7SWlvJe8MKfUDfJn9eQdNZ1jByywrOIINeXtghm-zCYOS5p1MO2iY-XI4PR2Fgen6knNuwNysNGD6RFz-TdVhcRU-kE9f4cV6_IjFDcH4VgY_nVSAZVzwVztduPUDuYw5xL6WJsCsoH5h58f3yT1PK55Ppdp2W3HQvp3igbnXeLyCeIJWbq0TYG3Yo_27g1roqyu1Ygvp5HK6nwIWNSKmIfgjDLIfeIyKJPW_pJSHffKQTJ4c_QQp2U3PVphaQGSWCjCsVqGQUHCP05DPOwaftdZiC9UrI-Fv9GYYXcZ3ufcXQcJZl9vHcL2UgCvF36v12CWd4mhPtyuUBypTlR_oscr_zfgUifTNM16C2VHSOF92ETTz2jXE4Sc50UZca4grUgcbN9D5JAfr0eclPIt4qwFS_l3UOs0-bYaFkpohdQwIA8swTpIFTaDfqjPa5T29sXal8cJWYNhR8fQC6zoaLtM7ofl8q5p03XVjPrGGinWANikqciEUuhZFla3HFAOQYp7fsv_K6lPx5t7X-__AnRNTKL8xB2MI8a_ZiCyxDUttyWBC8f_jwEggnHb1ZFnDd6oB9S4Af2ucKVgwsy9rTePWkhrRiAvGf6WZYCjn3rHU39rJUvpUX74rQi6euD0TR0G9dAtDSLr5Wde-5eEHwQsa5l95J0CA3RmxpjOLM0DT3CGnqZ4Z1jdHe5i_7GrK3pr60-6dfB1JXldLfu_N6_09gdne4xT6SAi6nBs3yR-Ru6rYJC8qm2thNxtc3eZm8DD4_f57ysp5JhT0hDQOMDhHrPi8hCAY9JeLHun- -WDUwDRlfS6qqJieOXLggvDyrj0M19_MUJB7-ADt2vK_Qh6rhNhAO-NiUvbGO_F0mejFP4K5SBmuNvCHOxQst_Uvq5xayQSkPFHpuqpnivy3VqMhPw0pIx3KsZ5dqGfLibMebcCxQ6MMrkABsjYiqHzJPAMDjfBQlh_dSSreSKBiUTIYGmU8FB8I8ylmUtGxKWi2VWd9S6zbfi50UMZPkDvFUn7HTww98mKnnTn-M-fUykI89tblsBU4LaZxV6LHrOIyOIjASrE7ASs5e5L12BA6-gAvTbY5b0lWB4dYRQ9hAS5NWMpYsmgP41jCXsNLp9NdHgXMNJkuI-H7-l_ZTbLsxaZYN7zGNO7gwV6Qbryc7vsCYFbyTD5gbWDFcAPKA-8nsr5HnYU2VFOlOrMU8roQj-Yn85Pwz9W-zOhJfPjHfaY_jHCvyiGuSUhhgD5jy8ynU3MyRs2fg8LG-p47p6J5ABlCqMhb77x8vr1h5yn0G5Y4s1SjAjSK8dypDtxdcVqAUWjyg7JkkefgRXxibYCHYguRUkZTv-sVZweSxPK_6xzddGyaHZjtr2C_kO6NZ1F5XsJuXQ3V8vq5RKwkGZBF2TVDNzUXaN9fWViKWwUMSuz0XgxnD5cx6awLG85jzbejPMT1RLOFa3WjlGajxzJi9ZZfF7aBz0_mJvCqx2uyQ5PLYowcIDKmR6X7BSk5ZkUTRCEHyODBz8d2rGrZNb7nAcpcz5a_p1spbq7JfKlugjWnoPV3JwN8QMRhN_ujeiqrWSFzmQpxQVTlFymjI1Qr56_h4f43DxE_ZoAM8L9t-ZaLb8wy6-xU3muPXc-VP3W6y_1FZsGu1_pmy1hY2OnVlB2_H8c1GJkQ-ydkU_SjqV_minVaEsoFMHEvfumudle_UtSoJXFtL-V7DrWRZCO8AYcES56WZyrFaDFs9qdIapJ52Q9Kddjm-N4tIJtG6QR3WVBZkB_By_q38DgHHx0gI3xgXp0GD71fRH1rLsi5t-zHS0]--></g></svg>