<?xml version="1.0" encoding="us-ascii" standalone="no"?><svg xmlns="http://www.w3.org/2000/svg" xmlns:xlink="http://www.w3.org/1999/xlink" contentStyleType="text/css" height="1488.5417px" preserveAspectRatio="none" style="width:1398px;height:1488px;" version="1.1" viewBox="0 0 1398 1488" width="1398.9583px" zoomAndPan="magnify"><defs><linearGradient id="g1ani9oj1hhs4c0" x1="50%" x2="50%" y1="0%" y2="100%"><stop offset="0%" stop-color="#EDF0F2"/><stop offset="100%" stop-color="#E9ECEF"/></linearGradient></defs><g><rect fill="url(#g1ani9oj1hhs4c0)" height="45.8008" rx="4.1667" ry="4.1667" style="stroke:#E9ECEF;stroke-width:1.0416666666666667;" width="414.5833" x="10.4167" y="720.4915"/><text fill="#343A40" font-family="Verdana" font-size="12.5" lengthAdjust="spacing" textLength="383.3333" x="26.0417" y="747.7193">Hypothesis 1: Emoji Impact on Sentiment and Engagement</text><rect fill="url(#g1ani9oj1hhs4c0)" height="45.8008" rx="4.1667" ry="4.1667" style="stroke:#E9ECEF;stroke-width:1.0416666666666667;" width="302.0833" x="477.0833" y="154.1016"/><text fill="#343A40" font-family="Verdana" font-size="12.5" lengthAdjust="spacing" textLength="270.8333" x="492.7083" y="181.3293">Phase 1: Data Collection and Preparation</text><rect fill="url(#g1ani9oj1hhs4c0)" height="45.8008" rx="4.1667" ry="4.1667" style="stroke:#E9ECEF;stroke-width:1.0416666666666667;" width="123.9583" x="831.25" y="20.8333"/><text fill="#343A40" font-family="Verdana" font-size="12.5" lengthAdjust="spacing" textLength="92.7083" x="846.875" y="48.0611">Data Sourcing</text><rect fill="url(#g1ani9oj1hhs4c0)" height="45.8008" rx="4.1667" ry="4.1667" style="stroke:#E9ECEF;stroke-width:1.0416666666666667;" width="131.25" x="1007.2917" y="20.8333"/><text fill="#343A40" font-family="Verdana" font-size="12.5" lengthAdjust="spacing" textLength="100" x="1022.9167" y="48.0611">Collect Dataset</text><path d="M955.2083,43.7337 L965.625,43.7337 C981.25,43.7337 981.25,43.7337 996.875,43.7337 L1007.2917,43.7337 " fill="none" style="stroke:#2FA4E7;stroke-width:3.125;"/><path d="M779.1667,177.002 L789.5833,177.002 C805.2083,177.002 805.2083,43.7337 820.8333,43.7337 L831.25,43.7337 " fill="none" style="stroke:#2FA4E7;stroke-width:3.125;"/><rect fill="url(#g1ani9oj1hhs4c0)" height="45.8008" rx="4.1667" ry="4.1667" style="stroke:#E9ECEF;stroke-width:1.0416666666666667;" width="122.9167" x="831.25" y="120.7845"/><text fill="#343A40" font-family="Verdana" font-size="12.5" lengthAdjust="spacing" textLength="91.6667" x="846.875" y="148.0123">Data Cleaning</text><rect fill="url(#g1ani9oj1hhs4c0)" height="45.8008" rx="4.1667" ry="4.1667" style="stroke:#E9ECEF;stroke-width:1.0416666666666667;" width="212.5" x="1006.25" y="87.4674"/><text fill="#343A40" font-family="Verdana" font-size="12.5" lengthAdjust="spacing" textLength="181.25" x="1021.875" y="114.6952">Remove Irrelevant Elements</text><path d="M954.1667,143.6849 L964.5833,143.6849 C980.2083,143.6849 980.2083,110.3678 995.8333,110.3678 L1006.25,110.3678 " fill="none" style="stroke:#2FA4E7;stroke-width:3.125;"/><rect fill="url(#g1ani9oj1hhs4c0)" height="45.8008" rx="4.1667" ry="4.1667" style="stroke:#E9ECEF;stroke-width:1.0416666666666667;" width="125" x="1006.25" y="154.1016"/><text fill="#343A40" font-family="Verdana" font-size="12.5" lengthAdjust="spacing" textLength="93.75" x="1021.875" y="181.3293">Normalize Text</text><path d="M954.1667,143.6849 L964.5833,143.6849 C980.2083,143.6849 980.2083,177.002 995.8333,177.002 L1006.25,177.002 " fill="none" style="stroke:#2FA4E7;stroke-width:3.125;"/><path d="M779.1667,177.002 L789.5833,177.002 C805.2083,177.002 805.2083,143.6849 820.8333,143.6849 L831.25,143.6849 " fill="none" style="stroke:#2FA4E7;stroke-width:3.125;"/><rect fill="url(#g1ani9oj1hhs4c0)" height="45.8008" rx="4.1667" ry="4.1667" style="stroke:#E9ECEF;stroke-width:1.0416666666666667;" width="158.3333" x="831.25" y="254.0527"/><text fill="#343A40" font-family="Verdana" font-size="12.5" lengthAdjust="spacing" textLength="127.0833" x="846.875" y="281.2805">Data Segmentation</text><rect fill="url(#g1ani9oj1hhs4c0)" height="45.8008" rx="4.1667" ry="4.1667" style="stroke:#E9ECEF;stroke-width:1.0416666666666667;" width="236.4583" x="1041.6667" y="220.7357"/><text fill="#343A40" font-family="Verdana" font-size="12.5" lengthAdjust="spacing" textLength="205.2083" x="1057.2917" y="247.9635">Segment by Presence of Emojis</text><path d="M989.5833,276.9531 L1000,276.9531 C1015.625,276.9531 1015.625,243.6361 1031.25,243.6361 L1041.6667,243.6361 " fill="none" style="stroke:#2FA4E7;stroke-width:3.125;"/><rect fill="url(#g1ani9oj1hhs4c0)" height="45.8008" rx="4.1667" ry="4.1667" style="stroke:#E9ECEF;stroke-width:1.0416666666666667;" width="246.875" x="1041.6667" y="287.3698"/><text fill="#343A40" font-family="Verdana" font-size="12.5" lengthAdjust="spacing" textLength="215.625" x="1057.2917" y="314.5976">Ensure Balanced Representation</text><path d="M989.5833,276.9531 L1000,276.9531 C1015.625,276.9531 1015.625,310.2702 1031.25,310.2702 L1041.6667,310.2702 " fill="none" style="stroke:#2FA4E7;stroke-width:3.125;"/><path d="M779.1667,177.002 L789.5833,177.002 C805.2083,177.002 805.2083,276.9531 820.8333,276.9531 L831.25,276.9531 " fill="none" style="stroke:#2FA4E7;stroke-width:3.125;"/><path d="M425,743.3919 L435.4167,743.3919 C451.0417,743.3919 451.0417,177.002 466.6667,177.002 L477.0833,177.002 " fill="none" style="stroke:#2FA4E7;stroke-width:3.125;"/><rect fill="url(#g1ani9oj1hhs4c0)" height="45.8008" rx="4.1667" ry="4.1667" style="stroke:#E9ECEF;stroke-width:1.0416666666666667;" width="283.3333" x="477.0833" y="453.9551"/><text fill="#343A40" font-family="Verdana" font-size="12.5" lengthAdjust="spacing" textLength="252.0833" x="492.7083" y="481.1829">Phase 2: Sentiment and Emoji Analysis</text><rect fill="url(#g1ani9oj1hhs4c0)" height="45.8008" rx="4.1667" ry="4.1667" style="stroke:#E9ECEF;stroke-width:1.0416666666666667;" width="154.1667" x="812.5" y="354.0039"/><text fill="#343A40" font-family="Verdana" font-size="12.5" lengthAdjust="spacing" textLength="122.9167" x="828.125" y="381.2317">Sentiment Analysis</text><rect fill="url(#g1ani9oj1hhs4c0)" height="45.8008" rx="4.1667" ry="4.1667" style="stroke:#E9ECEF;stroke-width:1.0416666666666667;" width="309.375" x="1018.75" y="354.0039"/><text fill="#343A40" font-family="Verdana" font-size="12.5" lengthAdjust="spacing" textLength="278.125" x="1034.375" y="381.2317">Perform Sentiment Analysis on Review Text</text><path d="M966.6667,376.9043 L977.0833,376.9043 C992.7083,376.9043 992.7083,376.9043 1008.3333,376.9043 L1018.75,376.9043 " fill="none" style="stroke:#2FA4E7;stroke-width:3.125;"/><path d="M760.4167,476.8555 L770.8333,476.8555 C786.4583,476.8555 786.4583,376.9043 802.0833,376.9043 L812.5,376.9043 " fill="none" style="stroke:#2FA4E7;stroke-width:3.125;"/><rect fill="url(#g1ani9oj1hhs4c0)" height="45.8008" rx="4.1667" ry="4.1667" style="stroke:#E9ECEF;stroke-width:1.0416666666666667;" width="155.2083" x="812.5" y="453.9551"/><text fill="#343A40" font-family="Verdana" font-size="12.5" lengthAdjust="spacing" textLength="123.9583" x="828.125" y="481.1829">Frequency Analysis</text><rect fill="url(#g1ani9oj1hhs4c0)" height="45.8008" rx="4.1667" ry="4.1667" style="stroke:#E9ECEF;stroke-width:1.0416666666666667;" width="180.2083" x="1019.7917" y="420.638"/><text fill="#343A40" font-family="Verdana" font-size="12.5" lengthAdjust="spacing" textLength="148.9583" x="1035.4167" y="447.8658">Count Emoji Frequency</text><path d="M967.7083,476.8555 L978.125,476.8555 C993.75,476.8555 993.75,443.5384 1009.375,443.5384 L1019.7917,443.5384 " fill="none" style="stroke:#2FA4E7;stroke-width:3.125;"/><rect fill="url(#g1ani9oj1hhs4c0)" height="45.8008" rx="4.1667" ry="4.1667" style="stroke:#E9ECEF;stroke-width:1.0416666666666667;" width="145.8333" x="1019.7917" y="487.2721"/><text fill="#343A40" font-family="Verdana" font-size="12.5" lengthAdjust="spacing" textLength="114.5833" x="1035.4167" y="514.4999">Categorize Emojis</text><path d="M967.7083,476.8555 L978.125,476.8555 C993.75,476.8555 993.75,510.1725 1009.375,510.1725 L1019.7917,510.1725 " fill="none" style="stroke:#2FA4E7;stroke-width:3.125;"/><path d="M760.4167,476.8555 L770.8333,476.8555 C786.4583,476.8555 786.4583,476.8555 802.0833,476.8555 L812.5,476.8555 " fill="none" style="stroke:#2FA4E7;stroke-width:3.125;"/><rect fill="url(#g1ani9oj1hhs4c0)" height="45.8008" rx="4.1667" ry="4.1667" style="stroke:#E9ECEF;stroke-width:1.0416666666666667;" width="161.4583" x="812.5" y="553.9063"/><text fill="#343A40" font-family="Verdana" font-size="12.5" lengthAdjust="spacing" textLength="130.2083" x="828.125" y="581.134">Pattern Recognition</text><rect fill="url(#g1ani9oj1hhs4c0)" height="45.8008" rx="4.1667" ry="4.1667" style="stroke:#E9ECEF;stroke-width:1.0416666666666667;" width="285.4167" x="1026.0417" y="553.9063"/><text fill="#343A40" font-family="Verdana" font-size="12.5" lengthAdjust="spacing" textLength="254.1667" x="1041.6667" y="581.134">Identify Sentiment Patterns with Emojis</text><path d="M973.9583,576.8066 L984.375,576.8066 C1000,576.8066 1000,576.8066 1015.625,576.8066 L1026.0417,576.8066 " fill="none" style="stroke:#2FA4E7;stroke-width:3.125;"/><path d="M760.4167,476.8555 L770.8333,476.8555 C786.4583,476.8555 786.4583,576.8066 802.0833,576.8066 L812.5,576.8066 " fill="none" style="stroke:#2FA4E7;stroke-width:3.125;"/><path d="M425,743.3919 L435.4167,743.3919 C451.0417,743.3919 451.0417,476.8555 466.6667,476.8555 L477.0833,476.8555 " fill="none" style="stroke:#2FA4E7;stroke-width:3.125;"/><rect fill="url(#g1ani9oj1hhs4c0)" height="45.8008" rx="4.1667" ry="4.1667" style="stroke:#E9ECEF;stroke-width:1.0416666666666667;" width="317.7083" x="477.0833" y="687.1745"/><text fill="#343A40" font-family="Verdana" font-size="12.5" lengthAdjust="spacing" textLength="286.4583" x="492.7083" y="714.4023">Phase 3: Correlation and Predictive Analysis</text><rect fill="url(#g1ani9oj1hhs4c0)" height="45.8008" rx="4.1667" ry="4.1667" style="stroke:#E9ECEF;stroke-width:1.0416666666666667;" width="143.75" x="846.875" y="620.5404"/><text fill="#343A40" font-family="Verdana" font-size="12.5" lengthAdjust="spacing" textLength="112.5" x="862.5" y="647.7681">Correlation Study</text><rect fill="url(#g1ani9oj1hhs4c0)" height="45.8008" rx="4.1667" ry="4.1667" style="stroke:#E9ECEF;stroke-width:1.0416666666666667;" width="339.5833" x="1042.7083" y="620.5404"/><text fill="#343A40" font-family="Verdana" font-size="12.5" lengthAdjust="spacing" textLength="308.3333" x="1058.3333" y="647.7681">Analyze Emoji Usage and Sentiment Correlation</text><path d="M990.625,643.4408 L1001.0417,643.4408 C1016.6667,643.4408 1016.6667,643.4408 1032.2917,643.4408 L1042.7083,643.4408 " fill="none" style="stroke:#2FA4E7;stroke-width:3.125;"/><path d="M794.7917,710.0749 L805.2083,710.0749 C820.8333,710.0749 820.8333,643.4408 836.4583,643.4408 L846.875,643.4408 " fill="none" style="stroke:#2FA4E7;stroke-width:3.125;"/><rect fill="url(#g1ani9oj1hhs4c0)" height="45.8008" rx="4.1667" ry="4.1667" style="stroke:#E9ECEF;stroke-width:1.0416666666666667;" width="151.0417" x="846.875" y="720.4915"/><text fill="#343A40" font-family="Verdana" font-size="12.5" lengthAdjust="spacing" textLength="119.7917" x="862.5" y="747.7193">Predictive Analysis</text><rect fill="url(#g1ani9oj1hhs4c0)" height="45.8008" rx="4.1667" ry="4.1667" style="stroke:#E9ECEF;stroke-width:1.0416666666666667;" width="336.4583" x="1050" y="687.1745"/><text fill="#343A40" font-family="Verdana" font-size="12.5" lengthAdjust="spacing" textLength="305.2083" x="1065.625" y="714.4023">Predict Star Rating and Votes based on Emojis</text><path d="M997.9167,743.3919 L1008.3333,743.3919 C1023.9583,743.3919 1023.9583,710.0749 1039.5833,710.0749 L1050,710.0749 " fill="none" style="stroke:#2FA4E7;stroke-width:3.125;"/><rect fill="url(#g1ani9oj1hhs4c0)" height="45.8008" rx="4.1667" ry="4.1667" style="stroke:#E9ECEF;stroke-width:1.0416666666666667;" width="330.2083" x="1050" y="753.8086"/><text fill="#343A40" font-family="Verdana" font-size="12.5" lengthAdjust="spacing" textLength="298.9583" x="1065.625" y="781.0364">Detect Associations with Engagement Metrics</text><path d="M997.9167,743.3919 L1008.3333,743.3919 C1023.9583,743.3919 1023.9583,776.709 1039.5833,776.709 L1050,776.709 " fill="none" style="stroke:#2FA4E7;stroke-width:3.125;"/><path d="M794.7917,710.0749 L805.2083,710.0749 C820.8333,710.0749 820.8333,743.3919 836.4583,743.3919 L846.875,743.3919 " fill="none" style="stroke:#2FA4E7;stroke-width:3.125;"/><path d="M425,743.3919 L435.4167,743.3919 C451.0417,743.3919 451.0417,710.0749 466.6667,710.0749 L477.0833,710.0749 " fill="none" style="stroke:#2FA4E7;stroke-width:3.125;"/><rect fill="url(#g1ani9oj1hhs4c0)" height="45.8008" rx="4.1667" ry="4.1667" style="stroke:#E9ECEF;stroke-width:1.0416666666666667;" width="343.75" x="477.0833" y="953.7109"/><text fill="#343A40" font-family="Verdana" font-size="12.5" lengthAdjust="spacing" textLength="312.5" x="492.7083" y="980.9387">Phase 4: Comparative Analysis and Visualization</text><rect fill="url(#g1ani9oj1hhs4c0)" height="45.8008" rx="4.1667" ry="4.1667" style="stroke:#E9ECEF;stroke-width:1.0416666666666667;" width="153.125" x="872.9167" y="820.4427"/><text fill="#343A40" font-family="Verdana" font-size="12.5" lengthAdjust="spacing" textLength="121.875" x="888.5417" y="847.6705">Comparative Study</text><rect fill="url(#g1ani9oj1hhs4c0)" height="45.8008" rx="4.1667" ry="4.1667" style="stroke:#E9ECEF;stroke-width:1.0416666666666667;" width="306.25" x="1078.125" y="820.4427"/><text fill="#343A40" font-family="Verdana" font-size="12.5" lengthAdjust="spacing" textLength="275" x="1093.75" y="847.6705">Compare Reviews With and Without Emojis</text><path d="M1026.0417,843.3431 L1036.4583,843.3431 C1052.0833,843.3431 1052.0833,843.3431 1067.7083,843.3431 L1078.125,843.3431 " fill="none" style="stroke:#2FA4E7;stroke-width:3.125;"/><path d="M820.8333,976.6113 L831.25,976.6113 C846.875,976.6113 846.875,843.3431 862.5,843.3431 L872.9167,843.3431 " fill="none" style="stroke:#2FA4E7;stroke-width:3.125;"/><rect fill="url(#g1ani9oj1hhs4c0)" height="45.8008" rx="4.1667" ry="4.1667" style="stroke:#E9ECEF;stroke-width:1.0416666666666667;" width="146.875" x="872.9167" y="920.3939"/><text fill="#343A40" font-family="Verdana" font-size="12.5" lengthAdjust="spacing" textLength="115.625" x="888.5417" y="947.6217">Data Visualization</text><rect fill="url(#g1ani9oj1hhs4c0)" height="45.8008" rx="4.1667" ry="4.1667" style="stroke:#E9ECEF;stroke-width:1.0416666666666667;" width="232.2917" x="1071.875" y="887.0768"/><text fill="#343A40" font-family="Verdana" font-size="12.5" lengthAdjust="spacing" textLength="201.0417" x="1087.5" y="914.3046">Bar Charts for Emoji Frequency</text><path d="M1019.7917,943.2943 L1030.2083,943.2943 C1045.8333,943.2943 1045.8333,909.9772 1061.4583,909.9772 L1071.875,909.9772 " fill="none" style="stroke:#2FA4E7;stroke-width:3.125;"/><rect fill="url(#g1ani9oj1hhs4c0)" height="45.8008" rx="4.1667" ry="4.1667" style="stroke:#E9ECEF;stroke-width:1.0416666666666667;" width="220.8333" x="1071.875" y="953.7109"/><text fill="#343A40" font-family="Verdana" font-size="12.5" lengthAdjust="spacing" textLength="189.5833" x="1087.5" y="980.9387">Scatter Plots for Correlations</text><path d="M1019.7917,943.2943 L1030.2083,943.2943 C1045.8333,943.2943 1045.8333,976.6113 1061.4583,976.6113 L1071.875,976.6113 " fill="none" style="stroke:#2FA4E7;stroke-width:3.125;"/><path d="M820.8333,976.6113 L831.25,976.6113 C846.875,976.6113 846.875,943.2943 862.5,943.2943 L872.9167,943.2943 " fill="none" style="stroke:#2FA4E7;stroke-width:3.125;"/><rect fill="url(#g1ani9oj1hhs4c0)" height="45.8008" rx="4.1667" ry="4.1667" style="stroke:#E9ECEF;stroke-width:1.0416666666666667;" width="157.2917" x="872.9167" y="1053.6621"/><text fill="#343A40" font-family="Verdana" font-size="12.5" lengthAdjust="spacing" textLength="126.0417" x="888.5417" y="1080.8899">Data Interpretation</text><rect fill="url(#g1ani9oj1hhs4c0)" height="45.8008" rx="4.1667" ry="4.1667" style="stroke:#E9ECEF;stroke-width:1.0416666666666667;" width="235.4167" x="1082.2917" y="1020.3451"/><text fill="#343A40" font-family="Verdana" font-size="12.5" lengthAdjust="spacing" textLength="204.1667" x="1097.9167" y="1047.5728">Examine Emotional Undertones</text><path d="M1030.2083,1076.5625 L1040.625,1076.5625 C1056.25,1076.5625 1056.25,1043.2454 1071.875,1043.2454 L1082.2917,1043.2454 " fill="none" style="stroke:#2FA4E7;stroke-width:3.125;"/><rect fill="url(#g1ani9oj1hhs4c0)" height="45.8008" rx="4.1667" ry="4.1667" style="stroke:#E9ECEF;stroke-width:1.0416666666666667;" width="226.0417" x="1082.2917" y="1086.9792"/><text fill="#343A40" font-family="Verdana" font-size="12.5" lengthAdjust="spacing" textLength="194.7917" x="1097.9167" y="1114.2069">Interpret Customer Sentiment</text><path d="M1030.2083,1076.5625 L1040.625,1076.5625 C1056.25,1076.5625 1056.25,1109.8796 1071.875,1109.8796 L1082.2917,1109.8796 " fill="none" style="stroke:#2FA4E7;stroke-width:3.125;"/><path d="M820.8333,976.6113 L831.25,976.6113 C846.875,976.6113 846.875,1076.5625 862.5,1076.5625 L872.9167,1076.5625 " fill="none" style="stroke:#2FA4E7;stroke-width:3.125;"/><path d="M425,743.3919 L435.4167,743.3919 C451.0417,743.3919 451.0417,976.6113 466.6667,976.6113 L477.0833,976.6113 " fill="none" style="stroke:#2FA4E7;stroke-width:3.125;"/><rect fill="url(#g1ani9oj1hhs4c0)" height="45.8008" rx="4.1667" ry="4.1667" style="stroke:#E9ECEF;stroke-width:1.0416666666666667;" width="287.5" x="477.0833" y="1220.2474"/><text fill="#343A40" font-family="Verdana" font-size="12.5" lengthAdjust="spacing" textLength="256.25" x="492.7083" y="1247.4752">Phase 5: Interpretation and Conclusion</text><rect fill="url(#g1ani9oj1hhs4c0)" height="45.8008" rx="4.1667" ry="4.1667" style="stroke:#E9ECEF;stroke-width:1.0416666666666667;" width="102.0833" x="816.6667" y="1186.9303"/><text fill="#343A40" font-family="Verdana" font-size="12.5" lengthAdjust="spacing" textLength="70.8333" x="832.2917" y="1214.1581">Conclusion</text><rect fill="url(#g1ani9oj1hhs4c0)" height="45.8008" rx="4.1667" ry="4.1667" style="stroke:#E9ECEF;stroke-width:1.0416666666666667;" width="235.4167" x="970.8333" y="1153.6133"/><text fill="#343A40" font-family="Verdana" font-size="12.5" lengthAdjust="spacing" textLength="204.1667" x="986.4583" y="1180.8411">Draw Conclusions from Analysis</text><path d="M918.75,1209.8307 L929.1667,1209.8307 C944.7917,1209.8307 944.7917,1176.5137 960.4167,1176.5137 L970.8333,1176.5137 " fill="none" style="stroke:#2FA4E7;stroke-width:3.125;"/><rect fill="url(#g1ani9oj1hhs4c0)" height="45.8008" rx="4.1667" ry="4.1667" style="stroke:#E9ECEF;stroke-width:1.0416666666666667;" width="266.6667" x="970.8333" y="1220.2474"/><text fill="#343A40" font-family="Verdana" font-size="12.5" lengthAdjust="spacing" textLength="235.4167" x="986.4583" y="1247.4752">Assess Emotional Depth and Impact</text><path d="M918.75,1209.8307 L929.1667,1209.8307 C944.7917,1209.8307 944.7917,1243.1478 960.4167,1243.1478 L970.8333,1243.1478 " fill="none" style="stroke:#2FA4E7;stroke-width:3.125;"/><path d="M764.5833,1243.1478 L775,1243.1478 C790.625,1243.1478 790.625,1209.8307 806.25,1209.8307 L816.6667,1209.8307 " fill="none" style="stroke:#2FA4E7;stroke-width:3.125;"/><rect fill="url(#g1ani9oj1hhs4c0)" height="45.8008" rx="4.1667" ry="4.1667" style="stroke:#E9ECEF;stroke-width:1.0416666666666667;" width="156.25" x="816.6667" y="1286.8815"/><text fill="#343A40" font-family="Verdana" font-size="12.5" lengthAdjust="spacing" textLength="125" x="832.2917" y="1314.1093">Document Findings</text><rect fill="url(#g1ani9oj1hhs4c0)" height="45.8008" rx="4.1667" ry="4.1667" style="stroke:#E9ECEF;stroke-width:1.0416666666666667;" width="235.4167" x="1025" y="1286.8815"/><text fill="#343A40" font-family="Verdana" font-size="12.5" lengthAdjust="spacing" textLength="204.1667" x="1040.625" y="1314.1093">Prepare Comprehensive Report</text><path d="M972.9167,1309.7819 L983.3333,1309.7819 C998.9583,1309.7819 998.9583,1309.7819 1014.5833,1309.7819 L1025,1309.7819 " fill="none" style="stroke:#2FA4E7;stroke-width:3.125;"/><path d="M764.5833,1243.1478 L775,1243.1478 C790.625,1243.1478 790.625,1309.7819 806.25,1309.7819 L816.6667,1309.7819 " fill="none" style="stroke:#2FA4E7;stroke-width:3.125;"/><path d="M425,743.3919 L435.4167,743.3919 C451.0417,743.3919 451.0417,1243.1478 466.6667,1243.1478 L477.0833,1243.1478 " fill="none" style="stroke:#2FA4E7;stroke-width:3.125;"/><rect fill="url(#g1ani9oj1hhs4c0)" height="45.8008" rx="4.1667" ry="4.1667" style="stroke:#E9ECEF;stroke-width:1.0416666666666667;" width="156.25" x="477.0833" y="1386.8327"/><text fill="#343A40" font-family="Verdana" font-size="12.5" lengthAdjust="spacing" textLength="125" x="492.7083" y="1414.0605">Phase 6: Reporting</text><rect fill="url(#g1ani9oj1hhs4c0)" height="45.8008" rx="4.1667" ry="4.1667" style="stroke:#E9ECEF;stroke-width:1.0416666666666667;" width="94.7917" x="685.4167" y="1386.8327"/><text fill="#343A40" font-family="Verdana" font-size="12.5" lengthAdjust="spacing" textLength="63.5417" x="701.0417" y="1414.0605">Reporting</text><rect fill="url(#g1ani9oj1hhs4c0)" height="45.8008" rx="4.1667" ry="4.1667" style="stroke:#E9ECEF;stroke-width:1.0416666666666667;" width="235.4167" x="832.2917" y="1353.5156"/><text fill="#343A40" font-family="Verdana" font-size="12.5" lengthAdjust="spacing" textLength="204.1667" x="847.9167" y="1380.7434">Document Findings and Visuals</text><path d="M780.2083,1409.7331 L790.625,1409.7331 C806.25,1409.7331 806.25,1376.416 821.875,1376.416 L832.2917,1376.416 " fill="none" style="stroke:#2FA4E7;stroke-width:3.125;"/><rect fill="url(#g1ani9oj1hhs4c0)" height="45.8008" rx="4.1667" ry="4.1667" style="stroke:#E9ECEF;stroke-width:1.0416666666666667;" width="240.625" x="832.2917" y="1420.1497"/><text fill="#343A40" font-family="Verdana" font-size="12.5" lengthAdjust="spacing" textLength="209.375" x="847.9167" y="1447.3775">Prepare Presentation of Results</text><path d="M780.2083,1409.7331 L790.625,1409.7331 C806.25,1409.7331 806.25,1443.0501 821.875,1443.0501 L832.2917,1443.0501 " fill="none" style="stroke:#2FA4E7;stroke-width:3.125;"/><path d="M633.3333,1409.7331 L643.75,1409.7331 C659.375,1409.7331 659.375,1409.7331 675,1409.7331 L685.4167,1409.7331 " fill="none" style="stroke:#2FA4E7;stroke-width:3.125;"/><path d="M425,743.3919 L435.4167,743.3919 C451.0417,743.3919 451.0417,1409.7331 466.6667,1409.7331 L477.0833,1409.7331 " fill="none" style="stroke:#2FA4E7;stroke-width:3.125;"/><!--SRC=[xHhRSjiszbdw2hJUXzOpoegwMV9qTg8R4tVjZCPsqiSEJ48oQuhG0g0TRyV_lkU080cIa9qqQlR5cB57n3auznielPMA2hMDad1BT-qVr2tRCX8maSQC9krZylvnns5JHf9ufsIvvNz4v6oxeu4YF25NB57H5luHceHacMpeXk5Z-_YOh6wfP7XeGHKbSnx7B50H74BKbM0xAYW-0-vnXdF5Kn54oGPtZlCJ6YIPAj7cA5g1Tics_9wHCo5OpEufYBACjGmoWt_WOalZwB-CNBFF5fKhja6iGeJZV8VSFA9uaYK18toTwMo8BHEP2aPcDAO03O7vJcCMP8pMlTEwQRJXfWcD7sL6p4Amju424skGsG57Yr-o-uWzbBhuWlqd1L4VQrJcF4LJQBO5ZW5HnJPSe4bAtSYAAiK4CWZu9ebAivo5ACZwqHB8u4ho4AdRaeXHldyAtD4Tr7Pt687tmL4L6zXuLoeDZOGQ9nUFV9GGLPfCAO5rC9FUpQ0007Kgo2KSI3QQr2Ukc2Gt86-8PhMTl60Ausug9GyYpI9Nj8XlSi6KY09BwG4glSrYsX8YunN954Em5DT6jVJEjfbniYI_8LUaW1zugcn_wI1kK3w6s1HaVWivBGc4aJi2hWBjGBAAkK6px6cHFqi02oBSpfBbPmhLGli6DsbCFYOX4uedpDYlE4NcgLHy2umAnvK66vxMo6j5vpm9ubIMTh8VGIf17wnDa5tmRStZu3ScfINVWksC6RF2bUd7WrHxqeVI1q5HXels07f2i5kMI7GHf3aNbkoZKxDbgb3roK7S2eCQevLLFx3QN3APnb2xtZAeoAOgjzzMYZGiUHSb641RYE3WRYCWsKEeb-189MWYaJBOkiHA9Pk1cQ_KOyp86eHWxMpz8d7hNsr21EUA_0aV28JGVfe8ztcYCiYHx_jw2ze44-THSfVlBqwMta23O9UPtTvet9zDYjthsoYuIz1Pdjwxe68J9SJhwgSL3T5sPAIVhcvfo1_mkVi6uK_mb_2GPIBdkDuGdxJe0HS9H5vF4wjhTDJpfuFbIQUK2Ea5TAVTyAT3mfpd6im4P9z3GKQxzuo61Lw3_NAod2_zkZ6x_Vxyf5_iPjwwuN5e2D_QDDsy1LipWPthMVxFEBG_w4y7tVqooAnlyxsgrGZiPzWWhI8LepzR6ehj2PpNcd41Ybnc7BHBhJNEuQKbMWNG0s1DEh3ymk_wlKxkWPQbUXOJESMwftJ0FOGHtIpW3vCA94sOUk3Y3Z-sMhMqgD8fYDVjDPpCHijvno2Wt43BpXbpi5NB6CY22aiJoQsdTaioSQzzVo2XD54g17_GD1rCMyqanpCw4_GPvF3Evk2F_Oa_hPpyn_dPk_VNlo-cb_zkgDlJwfe2COIFUSOFaP79EnZ-bEKS61ll3ca4frVAcbNADDBA9r0ewlRIt6qwtLw_Evox36IAGURFCkSgf_CWRfxE89sZsNIscFbL8Ko68kLj53E9hRikQCwzp4Llb3_fl8qKp1t1VjPLGNCnW2NE0N5aEEuhZFla3MAE0vlpwCmR3BjTXxsp-FZbdwRLbLqnP6iApHRnFr2uzfZruoScGfhG7zsesXfvYUdPEBk8E9O7GfL8ikXZbPNrv1BDRc6LUbUYh60aY89e1r6V1nwkWSrjnZ_Ri7nLS5m8i8OMoXHptrHGQnsDH-FbP6Hh1xsHSGN3W6aFywQ7TG4sG3iFJOmWODeuDVPdav5dWFQfuNmywYqruAnnQj4RJ0Ovq3uryRsHDzE0PLF2mScutpV0YeHPX27WGxFl3KVziM-0zYcJua-McIgTJgEr6c7ZQaSEh3opyiZKA2NUuJjeXNkjcpvLHjEORM28HJNtfhah01of_sIJbG_H5gxVsdvLGvkQLTUdrsvTey5V7WOqMdCYgAf5yPePgKTdRVzhdGNkR0Poqf-E-z0yyRfQhyNBHc-0PhVbITYW3w9qoaGhq5p6DZ2dpIsbTsMnEQ3ULWbhEgrXTTF_3iFw9OMBSQSK2GnUu_8I4PdTkfkXcXFO4t2jvmRsIcpa1vQrcmto-zoC2pDq8SmMnzHnt7VqtGMBwQDZ_pnQC-pnphYg0Yl9M83sj8OMZXCxfu0QuX3bNNdbSWmn2yXNWBZJnDW4orcEv-3S0DiQMK27R9VvbUnPfvPOBhqBw7Fqz-f_LNJbMkuuSjnSWDtX-fMHMYKV56-0vU7okCuYKOB7tx5Cu7kjWxQ2bnZUu5aglYTBkc5PrMzGuk3i3QlndUXL9QjNZMn-FwhdasFeCCDLfzRYQs7-R71ZRA_nMmkN7dOX-8gPf19vsnrSemxP7QiC8dnN2WembmB5f5lXH8xc9zwyr_k2FWMz5T-nEqSrFGrtZXQBuKWFlrLjpFRpnZSlwbfxAdx7FGywNj6uRH_pr3rc-Zr_xYyxHqol6laCw2fgLV8XLHI_9_YE6HV4L1wmIBQopl3IIr1tdyZRZ2DDfqg9w2PLbRPYigW2oruWU3Kj-SqVB3ZaE7a8-NFqBv0_bImuR5muXYMdJiuu5M1CACUrY-MUrvePvnS6pMyIPmUKJKtvcuIfyblpE7lXtNhfElHI_SgtNkGeyANHrp9qTAlz5zTwcQRgyE5MUstxPJVFRqmTk1Qbx6-R0gbmjuDldoBMKVmN6fc3j1dicmuExWvfbjVVRxp-VkFrznkllzzu_Vt6__Nt6oieD-hZnJcvPmBr9jwRNhVNV-DvF_t6C2rsnEiJRtpQ6vts- -JZzPmW_EVsJ-zMvqHYMMKaZ6JMLu70p-rVwJqbbwbsoob9qZXk__hf0ifMUWDeE2TykcWlic-j8F03ZdgS0cc_CswVmvoOGYgOWxhMYCViwNy0]--></g></svg>