<?xml version="1.0" encoding="us-ascii" standalone="no"?><svg xmlns="http://www.w3.org/2000/svg" xmlns:xlink="http://www.w3.org/1999/xlink" contentStyleType="text/css" height="955.2083px" preserveAspectRatio="none" style="width:1428px;height:955px;" version="1.1" viewBox="0 0 1428 955" width="1428.125px" zoomAndPan="magnify"><defs><linearGradient id="gkq3ysm1avljf0" x1="50%" x2="50%" y1="0%" y2="100%"><stop offset="0%" stop-color="#EDF0F2"/><stop offset="100%" stop-color="#E9ECEF"/></linearGradient></defs><g><rect fill="url(#gkq3ysm1avljf0)" height="45.8008" rx="4.1667" ry="4.1667" style="stroke:#E9ECEF;stroke-width:1.0416666666666667;" width="454.1667" x="10.4167" y="453.9551"/><text fill="#343A40" font-family="Verdana" font-size="12.5" lengthAdjust="spacing" textLength="422.9167" x="26.0417" y="481.1829">Hypothesis 3: Emoji-infused models for better sentiment analysis</text><rect fill="url(#gkq3ysm1avljf0)" height="45.8008" rx="4.1667" ry="4.1667" style="stroke:#E9ECEF;stroke-width:1.0416666666666667;" width="366.6667" x="516.6667" y="120.7845"/><text fill="#343A40" font-family="Verdana" font-size="12.5" lengthAdjust="spacing" textLength="335.4167" x="532.2917" y="148.0123">Phase 1: Model Development and Data Preparation</text><rect fill="url(#gkq3ysm1avljf0)" height="45.8008" rx="4.1667" ry="4.1667" style="stroke:#E9ECEF;stroke-width:1.0416666666666667;" width="118.75" x="935.4167" y="54.1504"/><text fill="#343A40" font-family="Verdana" font-size="12.5" lengthAdjust="spacing" textLength="87.5" x="951.0417" y="81.3782">Model Design</text><rect fill="url(#gkq3ysm1avljf0)" height="45.8008" rx="4.1667" ry="4.1667" style="stroke:#E9ECEF;stroke-width:1.0416666666666667;" width="287.5" x="1106.25" y="20.8333"/><text fill="#343A40" font-family="Verdana" font-size="12.5" lengthAdjust="spacing" textLength="256.25" x="1121.875" y="48.0611">Develop Emoji-Infused Sentiment Model</text><path d="M1054.1667,77.0508 L1064.5833,77.0508 C1080.2083,77.0508 1080.2083,43.7337 1095.8333,43.7337 L1106.25,43.7337 " fill="none" style="stroke:#2FA4E7;stroke-width:3.125;"/><rect fill="url(#gkq3ysm1avljf0)" height="45.8008" rx="4.1667" ry="4.1667" style="stroke:#E9ECEF;stroke-width:1.0416666666666667;" width="168.75" x="1106.25" y="87.4674"/><text fill="#343A40" font-family="Verdana" font-size="12.5" lengthAdjust="spacing" textLength="137.5" x="1121.875" y="114.6952">Utilize ML Techniques</text><path d="M1054.1667,77.0508 L1064.5833,77.0508 C1080.2083,77.0508 1080.2083,110.3678 1095.8333,110.3678 L1106.25,110.3678 " fill="none" style="stroke:#2FA4E7;stroke-width:3.125;"/><path d="M883.3333,143.6849 L893.75,143.6849 C909.375,143.6849 909.375,77.0508 925,77.0508 L935.4167,77.0508 " fill="none" style="stroke:#2FA4E7;stroke-width:3.125;"/><rect fill="url(#gkq3ysm1avljf0)" height="45.8008" rx="4.1667" ry="4.1667" style="stroke:#E9ECEF;stroke-width:1.0416666666666667;" width="130.2083" x="935.4167" y="154.1016"/><text fill="#343A40" font-family="Verdana" font-size="12.5" lengthAdjust="spacing" textLength="98.9583" x="951.0417" y="181.3293">Data Collection</text><rect fill="url(#gkq3ysm1avljf0)" height="45.8008" rx="4.1667" ry="4.1667" style="stroke:#E9ECEF;stroke-width:1.0416666666666667;" width="267.7083" x="1117.7083" y="154.1016"/><text fill="#343A40" font-family="Verdana" font-size="12.5" lengthAdjust="spacing" textLength="236.4583" x="1133.3333" y="181.3293">Gather Reviews with Text and Emojis</text><path d="M1065.625,177.002 L1076.0417,177.002 C1091.6667,177.002 1091.6667,177.002 1107.2917,177.002 L1117.7083,177.002 " fill="none" style="stroke:#2FA4E7;stroke-width:3.125;"/><path d="M883.3333,143.6849 L893.75,143.6849 C909.375,143.6849 909.375,177.002 925,177.002 L935.4167,177.002 " fill="none" style="stroke:#2FA4E7;stroke-width:3.125;"/><rect fill="url(#gkq3ysm1avljf0)" height="45.8008" rx="4.1667" ry="4.1667" style="stroke:#E9ECEF;stroke-width:1.0416666666666667;" width="160.4167" x="935.4167" y="220.7357"/><text fill="#343A40" font-family="Verdana" font-size="12.5" lengthAdjust="spacing" textLength="129.1667" x="951.0417" y="247.9635">Data Preprocessing</text><rect fill="url(#gkq3ysm1avljf0)" height="45.8008" rx="4.1667" ry="4.1667" style="stroke:#E9ECEF;stroke-width:1.0416666666666667;" width="210.4167" x="1147.9167" y="220.7357"/><text fill="#343A40" font-family="Verdana" font-size="12.5" lengthAdjust="spacing" textLength="179.1667" x="1163.5417" y="247.9635">Clean and Preprocess Data</text><path d="M1095.8333,243.6361 L1106.25,243.6361 C1121.875,243.6361 1121.875,243.6361 1137.5,243.6361 L1147.9167,243.6361 " fill="none" style="stroke:#2FA4E7;stroke-width:3.125;"/><path d="M883.3333,143.6849 L893.75,143.6849 C909.375,143.6849 909.375,243.6361 925,243.6361 L935.4167,243.6361 " fill="none" style="stroke:#2FA4E7;stroke-width:3.125;"/><path d="M464.5833,476.8555 L475,476.8555 C490.625,476.8555 490.625,143.6849 506.25,143.6849 L516.6667,143.6849 " fill="none" style="stroke:#2FA4E7;stroke-width:3.125;"/><rect fill="url(#gkq3ysm1avljf0)" height="45.8008" rx="4.1667" ry="4.1667" style="stroke:#E9ECEF;stroke-width:1.0416666666666667;" width="288.5417" x="516.6667" y="387.321"/><text fill="#343A40" font-family="Verdana" font-size="12.5" lengthAdjust="spacing" textLength="257.2917" x="532.2917" y="414.5487">Phase 2: Model Training and Evaluation</text><rect fill="url(#gkq3ysm1avljf0)" height="45.8008" rx="4.1667" ry="4.1667" style="stroke:#E9ECEF;stroke-width:1.0416666666666667;" width="83.3333" x="857.2917" y="320.6868"/><text fill="#343A40" font-family="Verdana" font-size="12.5" lengthAdjust="spacing" textLength="52.0833" x="872.9167" y="347.9146">Training</text><rect fill="url(#gkq3ysm1avljf0)" height="45.8008" rx="4.1667" ry="4.1667" style="stroke:#E9ECEF;stroke-width:1.0416666666666667;" width="214.5833" x="992.7083" y="287.3698"/><text fill="#343A40" font-family="Verdana" font-size="12.5" lengthAdjust="spacing" textLength="183.3333" x="1008.3333" y="314.5976">Train with Prepared Dataset</text><path d="M940.625,343.5872 L951.0417,343.5872 C966.6667,343.5872 966.6667,310.2702 982.2917,310.2702 L992.7083,310.2702 " fill="none" style="stroke:#2FA4E7;stroke-width:3.125;"/><rect fill="url(#gkq3ysm1avljf0)" height="45.8008" rx="4.1667" ry="4.1667" style="stroke:#E9ECEF;stroke-width:1.0416666666666667;" width="175" x="992.7083" y="354.0039"/><text fill="#343A40" font-family="Verdana" font-size="12.5" lengthAdjust="spacing" textLength="143.75" x="1008.3333" y="381.2317">Fine-Tune Parameters</text><path d="M940.625,343.5872 L951.0417,343.5872 C966.6667,343.5872 966.6667,376.9043 982.2917,376.9043 L992.7083,376.9043 " fill="none" style="stroke:#2FA4E7;stroke-width:3.125;"/><path d="M805.2083,410.2214 L815.625,410.2214 C831.25,410.2214 831.25,343.5872 846.875,343.5872 L857.2917,343.5872 " fill="none" style="stroke:#2FA4E7;stroke-width:3.125;"/><rect fill="url(#gkq3ysm1avljf0)" height="45.8008" rx="4.1667" ry="4.1667" style="stroke:#E9ECEF;stroke-width:1.0416666666666667;" width="123.9583" x="857.2917" y="453.9551"/><text fill="#343A40" font-family="Verdana" font-size="12.5" lengthAdjust="spacing" textLength="92.7083" x="872.9167" y="481.1829">Benchmarking</text><rect fill="url(#gkq3ysm1avljf0)" height="45.8008" rx="4.1667" ry="4.1667" style="stroke:#E9ECEF;stroke-width:1.0416666666666667;" width="232.2917" x="1033.3333" y="420.638"/><text fill="#343A40" font-family="Verdana" font-size="12.5" lengthAdjust="spacing" textLength="201.0417" x="1048.9583" y="447.8658">Compare with Text-Only Models</text><path d="M981.25,476.8555 L991.6667,476.8555 C1007.2917,476.8555 1007.2917,443.5384 1022.9167,443.5384 L1033.3333,443.5384 " fill="none" style="stroke:#2FA4E7;stroke-width:3.125;"/><rect fill="url(#gkq3ysm1avljf0)" height="45.8008" rx="4.1667" ry="4.1667" style="stroke:#E9ECEF;stroke-width:1.0416666666666667;" width="269.7917" x="1033.3333" y="487.2721"/><text fill="#343A40" font-family="Verdana" font-size="12.5" lengthAdjust="spacing" textLength="238.5417" x="1048.9583" y="514.4999">Use Similar Datasets for Comparison</text><path d="M981.25,476.8555 L991.6667,476.8555 C1007.2917,476.8555 1007.2917,510.1725 1022.9167,510.1725 L1033.3333,510.1725 " fill="none" style="stroke:#2FA4E7;stroke-width:3.125;"/><path d="M805.2083,410.2214 L815.625,410.2214 C831.25,410.2214 831.25,476.8555 846.875,476.8555 L857.2917,476.8555 " fill="none" style="stroke:#2FA4E7;stroke-width:3.125;"/><path d="M464.5833,476.8555 L475,476.8555 C490.625,476.8555 490.625,410.2214 506.25,410.2214 L516.6667,410.2214 " fill="none" style="stroke:#2FA4E7;stroke-width:3.125;"/><rect fill="url(#gkq3ysm1avljf0)" height="45.8008" rx="4.1667" ry="4.1667" style="stroke:#E9ECEF;stroke-width:1.0416666666666667;" width="298.9583" x="516.6667" y="620.5404"/><text fill="#343A40" font-family="Verdana" font-size="12.5" lengthAdjust="spacing" textLength="267.7083" x="532.2917" y="647.7681">Phase 3: Performance Metrics Evaluation</text><rect fill="url(#gkq3ysm1avljf0)" height="45.8008" rx="4.1667" ry="4.1667" style="stroke:#E9ECEF;stroke-width:1.0416666666666667;" width="79.1667" x="867.7083" y="587.2233"/><text fill="#343A40" font-family="Verdana" font-size="12.5" lengthAdjust="spacing" textLength="47.9167" x="883.3333" y="614.4511">Testing</text><rect fill="url(#gkq3ysm1avljf0)" height="45.8008" rx="4.1667" ry="4.1667" style="stroke:#E9ECEF;stroke-width:1.0416666666666667;" width="196.875" x="998.9583" y="553.9063"/><text fill="#343A40" font-family="Verdana" font-size="12.5" lengthAdjust="spacing" textLength="165.625" x="1014.5833" y="581.134">Evaluate on Test Dataset</text><path d="M946.875,610.1237 L957.2917,610.1237 C972.9167,610.1237 972.9167,576.8066 988.5417,576.8066 L998.9583,576.8066 " fill="none" style="stroke:#2FA4E7;stroke-width:3.125;"/><rect fill="url(#gkq3ysm1avljf0)" height="45.8008" rx="4.1667" ry="4.1667" style="stroke:#E9ECEF;stroke-width:1.0416666666666667;" width="333.3333" x="998.9583" y="620.5404"/><text fill="#343A40" font-family="Verdana" font-size="12.5" lengthAdjust="spacing" textLength="302.0833" x="1014.5833" y="647.7681">Focus on Accuracy, Precision, Recall, F1-Score</text><path d="M946.875,610.1237 L957.2917,610.1237 C972.9167,610.1237 972.9167,643.4408 988.5417,643.4408 L998.9583,643.4408 " fill="none" style="stroke:#2FA4E7;stroke-width:3.125;"/><path d="M815.625,643.4408 L826.0417,643.4408 C841.6667,643.4408 841.6667,610.1237 857.2917,610.1237 L867.7083,610.1237 " fill="none" style="stroke:#2FA4E7;stroke-width:3.125;"/><rect fill="url(#gkq3ysm1avljf0)" height="45.8008" rx="4.1667" ry="4.1667" style="stroke:#E9ECEF;stroke-width:1.0416666666666667;" width="83.3333" x="867.7083" y="687.1745"/><text fill="#343A40" font-family="Verdana" font-size="12.5" lengthAdjust="spacing" textLength="52.0833" x="883.3333" y="714.4023">Analysis</text><rect fill="url(#gkq3ysm1avljf0)" height="45.8008" rx="4.1667" ry="4.1667" style="stroke:#E9ECEF;stroke-width:1.0416666666666667;" width="361.4583" x="1003.125" y="687.1745"/><text fill="#343A40" font-family="Verdana" font-size="12.5" lengthAdjust="spacing" textLength="330.2083" x="1018.75" y="714.4023">Compare Effectiveness in Sentiment Interpretation</text><path d="M951.0417,710.0749 L961.4583,710.0749 C977.0833,710.0749 977.0833,710.0749 992.7083,710.0749 L1003.125,710.0749 " fill="none" style="stroke:#2FA4E7;stroke-width:3.125;"/><path d="M815.625,643.4408 L826.0417,643.4408 C841.6667,643.4408 841.6667,710.0749 857.2917,710.0749 L867.7083,710.0749 " fill="none" style="stroke:#2FA4E7;stroke-width:3.125;"/><path d="M464.5833,476.8555 L475,476.8555 C490.625,476.8555 490.625,643.4408 506.25,643.4408 L516.6667,643.4408 " fill="none" style="stroke:#2FA4E7;stroke-width:3.125;"/><rect fill="url(#gkq3ysm1avljf0)" height="45.8008" rx="4.1667" ry="4.1667" style="stroke:#E9ECEF;stroke-width:1.0416666666666667;" width="316.6667" x="516.6667" y="820.4427"/><text fill="#343A40" font-family="Verdana" font-size="12.5" lengthAdjust="spacing" textLength="285.4167" x="532.2917" y="847.6705">Phase 4: Interpretation and Documentation</text><rect fill="url(#gkq3ysm1avljf0)" height="45.8008" rx="4.1667" ry="4.1667" style="stroke:#E9ECEF;stroke-width:1.0416666666666667;" width="121.875" x="885.4167" y="787.1257"/><text fill="#343A40" font-family="Verdana" font-size="12.5" lengthAdjust="spacing" textLength="90.625" x="901.0417" y="814.3534">Interpretation</text><rect fill="url(#gkq3ysm1avljf0)" height="45.8008" rx="4.1667" ry="4.1667" style="stroke:#E9ECEF;stroke-width:1.0416666666666667;" width="339.5833" x="1059.375" y="753.8086"/><text fill="#343A40" font-family="Verdana" font-size="12.5" lengthAdjust="spacing" textLength="308.3333" x="1075" y="781.0364">Draw Conclusions on Comparative Performance</text><path d="M1007.2917,810.026 L1017.7083,810.026 C1033.3333,810.026 1033.3333,776.709 1048.9583,776.709 L1059.375,776.709 " fill="none" style="stroke:#2FA4E7;stroke-width:3.125;"/><rect fill="url(#gkq3ysm1avljf0)" height="45.8008" rx="4.1667" ry="4.1667" style="stroke:#E9ECEF;stroke-width:1.0416666666666667;" width="252.0833" x="1059.375" y="820.4427"/><text fill="#343A40" font-family="Verdana" font-size="12.5" lengthAdjust="spacing" textLength="220.8333" x="1075" y="847.6705">Assess Value of Emojis in Analysis</text><path d="M1007.2917,810.026 L1017.7083,810.026 C1033.3333,810.026 1033.3333,843.3431 1048.9583,843.3431 L1059.375,843.3431 " fill="none" style="stroke:#2FA4E7;stroke-width:3.125;"/><path d="M833.3333,843.3431 L843.75,843.3431 C859.375,843.3431 859.375,810.026 875,810.026 L885.4167,810.026 " fill="none" style="stroke:#2FA4E7;stroke-width:3.125;"/><rect fill="url(#gkq3ysm1avljf0)" height="45.8008" rx="4.1667" ry="4.1667" style="stroke:#E9ECEF;stroke-width:1.0416666666666667;" width="94.7917" x="885.4167" y="887.0768"/><text fill="#343A40" font-family="Verdana" font-size="12.5" lengthAdjust="spacing" textLength="63.5417" x="901.0417" y="914.3046">Reporting</text><rect fill="url(#gkq3ysm1avljf0)" height="45.8008" rx="4.1667" ry="4.1667" style="stroke:#E9ECEF;stroke-width:1.0416666666666667;" width="383.3333" x="1032.2917" y="887.0768"/><text fill="#343A40" font-family="Verdana" font-size="12.5" lengthAdjust="spacing" textLength="352.0833" x="1047.9167" y="914.3046">Document Methodology, Findings, and Interpretations</text><path d="M980.2083,909.9772 L990.625,909.9772 C1006.25,909.9772 1006.25,909.9772 1021.875,909.9772 L1032.2917,909.9772 " fill="none" style="stroke:#2FA4E7;stroke-width:3.125;"/><path d="M833.3333,843.3431 L843.75,843.3431 C859.375,843.3431 859.375,909.9772 875,909.9772 L885.4167,909.9772 " fill="none" style="stroke:#2FA4E7;stroke-width:3.125;"/><path d="M464.5833,476.8555 L475,476.8555 C490.625,476.8555 490.625,843.3431 506.25,843.3431 L516.6667,843.3431 " fill="none" style="stroke:#2FA4E7;stroke-width:3.125;"/><!--SRC=[xHfPSzis-bdw5TXw7rfFb1MfmvAdinDTTDArMu_jP1ztO0gIK5E42e1st8x_UpzSuWL9IQFcOIUSiKV4TzyVARqH4dEvfkbyZJVDVyWLMHCK4vub1AVDK_JsUSFWK521EkTejcQ_qXPD5vaWSxHcSv88j60StHCf2KU2f9AkuH_2AKwUWQfvUegkLrWG59oZAqM0fkIH96nZqUPeYYL6rvniCCUICf0AD0vLqAK-E7LaLeTtLeVRhKHDOL3VIvhGtmcwkaHt95wbzBUC2CrMovgm926n4tMABZ1OoD4DUQJaIQ0dAbT0zz5efyKLY9MYdCL429ek3Vr4-KeZvq2Dd1iVEkFlEAOfK1hUZpZ9SfiTp73LTqOPunnYN2M8D0WHJKdhBai9kWRFhGa4mEWv9ccyMcF-a6l8ref1RbhhbpHvDYe9wpFGyfQkQOAv4sD2QsYfq4fQSo0LhWa7w1gdCVYPI4vZKRE72BbLmS88Oga6L6nXSIOKQ1J76SVnyojbT4m5y7e5aObnahn2KT2wZHadcliepx22XRF5GeNsaQGg2E30F47UfU2X3IVIQMYDwPvNG2OhGID5bfjJerSfmV4Jo4xZ95EgQXECAbWfKVII8HW9eHJx0Cu0LoniUYb5Y_Q0nHl6S-SvPPIdLspE4hO43q42p055lD8AbzKJpJS4QjhMTVDDgSpX4f0SIiirkiVnmvApB9r3NK2y9SUfKBvCPG4BYcqCh6_bSqBG0YU2DCtrer17_suYn1cJw0_uWD1u3qy5ZrWg3UGaYY9z18s6y4kQFhZpwTaiw6eGd19x6lO7dV5mUtgtel63ZdIWpwumNu8hWxQ-kyPpvH_KrtUtApndJ-g-_Lh1N-0lXG8mAZlSeAVkjEgGQIcqXL0pgrfq4aQZxkoibMka-CLuenFe3u-6JkO2t0Hizw4eGPkt1C-tU3Nni-5iCekgpcntEfEpplRKHEkU9NFBU5NawPVDoO90d6AoL_wUW7QwdL6tlLi7OHezssbQXS5kWJNMaif4nREXeMe2GF0QOyR1a1iZGOUqS0qSFFT4OmiC05ZH3Zm_ZTfHs78HQ1HCDpdXE5OZfHFkQKxnSWf_ggX0qvJ89yOVrCT6er8MPJvRvbL_zORZ_cpIiWXAR-1Lh1bBsAXK35H1IQJDvCPBio48VzInFv9IcYdcd3rfdXwXZNgHAnfT2Pf6IRWeIeW6qJ0QbIZ_UVdkuktT_wQZc__Kp0srkRP1zE2Zg_YU4cJh3gTI5e830-hXc4xmHYNlMRbEVMry2esYwYyjlSYd7NRQlOdFGROPc7ZcDLUYTabSfpQGribuD9wEex8Ija8LPrWOO9YpjAQeavxNOj1tTxfkgSG9ZNUBBYlgr02HQfmdr4hSrHXtwHidJAsDNj9nqEsrsnv_c_puyLzsrELJSKuME4kamlyPDZ3NDxxxGFWSDk3l_AZQ6wx5X4MS3KMUAm2bSYIndMEboypa7AqumahzBaU1jL7Ic6uWwrtYgQjRb3Pc7uimTvLmV0XmzGee8rNxjeCMhfD1Vp0RzelMmMmaJC8oOCV3f1vXtO0ji5Y7DaSKO5IZ6aJZOJ-mm29LRpBeXpCDU5UZceRTOTS1YrJ3AEW7OmsOrJNidWqw7GiiQMWoJ05-hi-zNhypY2omI6LB_ANWfjAaqsYDMjhunf47orMMoqoDakCTVuAMf5UcwKjfDKt84fPOPUREClSbWAVqNufinHDT9zWqaBAZRS-gsXCs6tVAuOUN0OrMtmZAPc7rW4BbixUt_xN9CiQEvAmp6dHWUDwgXRzYrwms6s3OhLawh_47LLfveMtHVCwsCA_F2qPlycPpHBiBBQmUj9hNxVmxZkX31c_NdLmbS7X5oY4cWloMgMMybggEmOw4Q-nRs4kvuGXcbISR9UzZFI_iqgLWHNLi7rVddhax9Gb-zfnVqWLHCzwRLsLWgHYte1sZeQ7MYOrNGGtng7AHFt9vbfWfr2j0_6LYVQBQcSFpIAw1YnOLW1xTRjmZsTwWvbW-kxVGVVntsd-xdSgLsl7Kk7q0zgVhPsPgcNsyVMydZbV7LH6fv2pvYcr2lPuwwYWu9F1UqMB-DKNY9J5TlyQ9GR2Nf29tgAyoMtrLsBhdesezUPOEkrorAYE-akPxarlbzWA6YDUEOYFuZ9sab7dh3Jn67NCwbWLGzNuG320-0xQRRaaIEfcS1PCm_8Gv1RCLeknVrVGst3gPJdjzlVoMhR77-vrlNzGrTdJybdyVzBoYyVi-OPb_pOp2Q1BDMYT4NnNs1kXhQcNsSopnlNhJ_FKgBawmE6AJR9Z9SEWbg7zEk37ZATEHb9pUPx8qLcmLbM3c1K9GiPBT_qhYOwwJnz3VeN-2_faWyN7pmhCiUMtovYa7Pq8xhZnOxdYjQIGVM3I_I9qDSBOzvMzIfYnlmHBpmhjnw77eKFzoHmSbgg_jFbkWPrhjVd2jjcaiZvzkbTUsd_Ra-OMb0uz56VdRja3C_UFWoxU81Kt-mY3piBQBVJt0ySCntVBj5m3VVW7mxHS0_mU_0BXES2hVGpqyGf8e4uFNOJlil0w2x_-hgsY3WWuA1kTX_xpJGU_l9aZ1VsX-Vt5zYGJBE8HvJeNfpC3WX-PF-16ZcqnxznobMP8qV_fmTOvkitj0Kv7-SDMSckyzq2oDcTBr75X7hK7p4ZQD3CQx9Pn04vBysTpz2G00]--></g></svg>