<?xml version="1.0" encoding="us-ascii" standalone="no"?><svg xmlns="http://www.w3.org/2000/svg" xmlns:xlink="http://www.w3.org/1999/xlink" contentStyleType="text/css" height="955.2083px" preserveAspectRatio="none" style="width:1502px;height:955px;" version="1.1" viewBox="0 0 1502 955" width="1502.0833px" zoomAndPan="magnify"><defs><linearGradient id="g2a9lruwne0ex0" x1="50%" x2="50%" y1="0%" y2="100%"><stop offset="0%" stop-color="#EDF0F2"/><stop offset="100%" stop-color="#E9ECEF"/></linearGradient></defs><g><rect fill="url(#g2a9lruwne0ex0)" height="45.8008" rx="4.1667" ry="4.1667" style="stroke:#E9ECEF;stroke-width:1.0416666666666667;" width="498.9583" x="10.4167" y="453.9551"/><text fill="#343A40" font-family="Verdana" font-size="12.5" lengthAdjust="spacing" textLength="467.7083" x="26.0417" y="481.1829">Hypothesis 2: Reviews with and without emojis show different sentiment</text><rect fill="url(#g2a9lruwne0ex0)" height="45.8008" rx="4.1667" ry="4.1667" style="stroke:#E9ECEF;stroke-width:1.0416666666666667;" width="191.6667" x="561.4583" y="120.7845"/><text fill="#343A40" font-family="Verdana" font-size="12.5" lengthAdjust="spacing" textLength="160.4167" x="577.0833" y="148.0123">Phase 1: Data Collection</text><rect fill="url(#g2a9lruwne0ex0)" height="45.8008" rx="4.1667" ry="4.1667" style="stroke:#E9ECEF;stroke-width:1.0416666666666667;" width="151.0417" x="805.2083" y="54.1504"/><text fill="#343A40" font-family="Verdana" font-size="12.5" lengthAdjust="spacing" textLength="119.7917" x="820.8333" y="81.3782">Gathering Reviews</text><rect fill="url(#g2a9lruwne0ex0)" height="45.8008" rx="4.1667" ry="4.1667" style="stroke:#E9ECEF;stroke-width:1.0416666666666667;" width="287.5" x="1008.3333" y="20.8333"/><text fill="#343A40" font-family="Verdana" font-size="12.5" lengthAdjust="spacing" textLength="256.25" x="1023.9583" y="48.0611">Collect Reviews with and without Emojis</text><path d="M956.25,77.0508 L966.6667,77.0508 C982.2917,77.0508 982.2917,43.7337 997.9167,43.7337 L1008.3333,43.7337 " fill="none" style="stroke:#2FA4E7;stroke-width:3.125;"/><rect fill="url(#g2a9lruwne0ex0)" height="45.8008" rx="4.1667" ry="4.1667" style="stroke:#E9ECEF;stroke-width:1.0416666666666667;" width="245.8333" x="1008.3333" y="87.4674"/><text fill="#343A40" font-family="Verdana" font-size="12.5" lengthAdjust="spacing" textLength="214.5833" x="1023.9583" y="114.6952">Focus: Toys, Apparel, Electronics</text><path d="M956.25,77.0508 L966.6667,77.0508 C982.2917,77.0508 982.2917,110.3678 997.9167,110.3678 L1008.3333,110.3678 " fill="none" style="stroke:#2FA4E7;stroke-width:3.125;"/><path d="M753.125,143.6849 L763.5417,143.6849 C779.1667,143.6849 779.1667,77.0508 794.7917,77.0508 L805.2083,77.0508 " fill="none" style="stroke:#2FA4E7;stroke-width:3.125;"/><rect fill="url(#g2a9lruwne0ex0)" height="45.8008" rx="4.1667" ry="4.1667" style="stroke:#E9ECEF;stroke-width:1.0416666666666667;" width="146.875" x="805.2083" y="187.4186"/><text fill="#343A40" font-family="Verdana" font-size="12.5" lengthAdjust="spacing" textLength="115.625" x="820.8333" y="214.6464">Data Segregation</text><rect fill="url(#g2a9lruwne0ex0)" height="45.8008" rx="4.1667" ry="4.1667" style="stroke:#E9ECEF;stroke-width:1.0416666666666667;" width="206.25" x="1004.1667" y="154.1016"/><text fill="#343A40" font-family="Verdana" font-size="12.5" lengthAdjust="spacing" textLength="175" x="1019.7917" y="181.3293">Group: Reviews with Emojis</text><path d="M952.0833,210.319 L962.5,210.319 C978.125,210.319 978.125,177.002 993.75,177.002 L1004.1667,177.002 " fill="none" style="stroke:#2FA4E7;stroke-width:3.125;"/><rect fill="url(#g2a9lruwne0ex0)" height="45.8008" rx="4.1667" ry="4.1667" style="stroke:#E9ECEF;stroke-width:1.0416666666666667;" width="228.125" x="1004.1667" y="220.7357"/><text fill="#343A40" font-family="Verdana" font-size="12.5" lengthAdjust="spacing" textLength="196.875" x="1019.7917" y="247.9635">Group: Reviews without Emojis</text><path d="M952.0833,210.319 L962.5,210.319 C978.125,210.319 978.125,243.6361 993.75,243.6361 L1004.1667,243.6361 " fill="none" style="stroke:#2FA4E7;stroke-width:3.125;"/><path d="M753.125,143.6849 L763.5417,143.6849 C779.1667,143.6849 779.1667,210.319 794.7917,210.319 L805.2083,210.319 " fill="none" style="stroke:#2FA4E7;stroke-width:3.125;"/><path d="M509.375,476.8555 L519.7917,476.8555 C535.4167,476.8555 535.4167,143.6849 551.0417,143.6849 L561.4583,143.6849 " fill="none" style="stroke:#2FA4E7;stroke-width:3.125;"/><rect fill="url(#g2a9lruwne0ex0)" height="45.8008" rx="4.1667" ry="4.1667" style="stroke:#E9ECEF;stroke-width:1.0416666666666667;" width="215.625" x="561.4583" y="354.0039"/><text fill="#343A40" font-family="Verdana" font-size="12.5" lengthAdjust="spacing" textLength="184.375" x="577.0833" y="381.2317">Phase 2: Sentiment Analysis</text><rect fill="url(#g2a9lruwne0ex0)" height="45.8008" rx="4.1667" ry="4.1667" style="stroke:#E9ECEF;stroke-width:1.0416666666666667;" width="158.3333" x="829.1667" y="287.3698"/><text fill="#343A40" font-family="Verdana" font-size="12.5" lengthAdjust="spacing" textLength="127.0833" x="844.7917" y="314.5976">Processing Reviews</text><rect fill="url(#g2a9lruwne0ex0)" height="45.8008" rx="4.1667" ry="4.1667" style="stroke:#E9ECEF;stroke-width:1.0416666666666667;" width="172.9167" x="1039.5833" y="287.3698"/><text fill="#343A40" font-family="Verdana" font-size="12.5" lengthAdjust="spacing" textLength="141.6667" x="1055.2083" y="314.5976">Apply NLP Techniques</text><path d="M987.5,310.2702 L997.9167,310.2702 C1013.5417,310.2702 1013.5417,310.2702 1029.1667,310.2702 L1039.5833,310.2702 " fill="none" style="stroke:#2FA4E7;stroke-width:3.125;"/><path d="M777.0833,376.9043 L787.5,376.9043 C803.125,376.9043 803.125,310.2702 818.75,310.2702 L829.1667,310.2702 " fill="none" style="stroke:#2FA4E7;stroke-width:3.125;"/><rect fill="url(#g2a9lruwne0ex0)" height="45.8008" rx="4.1667" ry="4.1667" style="stroke:#E9ECEF;stroke-width:1.0416666666666667;" width="154.1667" x="829.1667" y="387.321"/><text fill="#343A40" font-family="Verdana" font-size="12.5" lengthAdjust="spacing" textLength="122.9167" x="844.7917" y="414.5487">Sentiment Analysis</text><rect fill="url(#g2a9lruwne0ex0)" height="45.8008" rx="4.1667" ry="4.1667" style="stroke:#E9ECEF;stroke-width:1.0416666666666667;" width="260.4167" x="1035.4167" y="354.0039"/><text fill="#343A40" font-family="Verdana" font-size="12.5" lengthAdjust="spacing" textLength="229.1667" x="1051.0417" y="381.2317">Evaluate Sentiment of Both Groups</text><path d="M983.3333,410.2214 L993.75,410.2214 C1009.375,410.2214 1009.375,376.9043 1025,376.9043 L1035.4167,376.9043 " fill="none" style="stroke:#2FA4E7;stroke-width:3.125;"/><rect fill="url(#g2a9lruwne0ex0)" height="45.8008" rx="4.1667" ry="4.1667" style="stroke:#E9ECEF;stroke-width:1.0416666666666667;" width="298.9583" x="1035.4167" y="420.638"/><text fill="#343A40" font-family="Verdana" font-size="12.5" lengthAdjust="spacing" textLength="267.7083" x="1051.0417" y="447.8658">Measure Sentiment Intensity and Polarity</text><path d="M983.3333,410.2214 L993.75,410.2214 C1009.375,410.2214 1009.375,443.5384 1025,443.5384 L1035.4167,443.5384 " fill="none" style="stroke:#2FA4E7;stroke-width:3.125;"/><path d="M777.0833,376.9043 L787.5,376.9043 C803.125,376.9043 803.125,410.2214 818.75,410.2214 L829.1667,410.2214 " fill="none" style="stroke:#2FA4E7;stroke-width:3.125;"/><path d="M509.375,476.8555 L519.7917,476.8555 C535.4167,476.8555 535.4167,376.9043 551.0417,376.9043 L561.4583,376.9043 " fill="none" style="stroke:#2FA4E7;stroke-width:3.125;"/><rect fill="url(#g2a9lruwne0ex0)" height="45.8008" rx="4.1667" ry="4.1667" style="stroke:#E9ECEF;stroke-width:1.0416666666666667;" width="214.5833" x="561.4583" y="553.9063"/><text fill="#343A40" font-family="Verdana" font-size="12.5" lengthAdjust="spacing" textLength="183.3333" x="577.0833" y="581.134">Phase 3: Comparative Study</text><rect fill="url(#g2a9lruwne0ex0)" height="45.8008" rx="4.1667" ry="4.1667" style="stroke:#E9ECEF;stroke-width:1.0416666666666667;" width="168.75" x="828.125" y="520.5892"/><text fill="#343A40" font-family="Verdana" font-size="12.5" lengthAdjust="spacing" textLength="137.5" x="843.75" y="547.817">Comparative Analysis</text><rect fill="url(#g2a9lruwne0ex0)" height="45.8008" rx="4.1667" ry="4.1667" style="stroke:#E9ECEF;stroke-width:1.0416666666666667;" width="209.375" x="1048.9583" y="487.2721"/><text fill="#343A40" font-family="Verdana" font-size="12.5" lengthAdjust="spacing" textLength="178.125" x="1064.5833" y="514.4999">Compare Sentiment Scores</text><path d="M996.875,543.4896 L1007.2917,543.4896 C1022.9167,543.4896 1022.9167,510.1725 1038.5417,510.1725 L1048.9583,510.1725 " fill="none" style="stroke:#2FA4E7;stroke-width:3.125;"/><rect fill="url(#g2a9lruwne0ex0)" height="45.8008" rx="4.1667" ry="4.1667" style="stroke:#E9ECEF;stroke-width:1.0416666666666667;" width="191.6667" x="1048.9583" y="553.9063"/><text fill="#343A40" font-family="Verdana" font-size="12.5" lengthAdjust="spacing" textLength="160.4167" x="1064.5833" y="581.134">Analyze Emotional Depth</text><path d="M996.875,543.4896 L1007.2917,543.4896 C1022.9167,543.4896 1022.9167,576.8066 1038.5417,576.8066 L1048.9583,576.8066 " fill="none" style="stroke:#2FA4E7;stroke-width:3.125;"/><path d="M776.0417,576.8066 L786.4583,576.8066 C802.0833,576.8066 802.0833,543.4896 817.7083,543.4896 L828.125,543.4896 " fill="none" style="stroke:#2FA4E7;stroke-width:3.125;"/><rect fill="url(#g2a9lruwne0ex0)" height="45.8008" rx="4.1667" ry="4.1667" style="stroke:#E9ECEF;stroke-width:1.0416666666666667;" width="152.0833" x="828.125" y="620.5404"/><text fill="#343A40" font-family="Verdana" font-size="12.5" lengthAdjust="spacing" textLength="120.8333" x="843.75" y="647.7681">Statistical Analysis</text><rect fill="url(#g2a9lruwne0ex0)" height="45.8008" rx="4.1667" ry="4.1667" style="stroke:#E9ECEF;stroke-width:1.0416666666666667;" width="276.0417" x="1032.2917" y="620.5404"/><text fill="#343A40" font-family="Verdana" font-size="12.5" lengthAdjust="spacing" textLength="244.7917" x="1047.9167" y="647.7681">Determine Significance of Differences</text><path d="M980.2083,643.4408 L990.625,643.4408 C1006.25,643.4408 1006.25,643.4408 1021.875,643.4408 L1032.2917,643.4408 " fill="none" style="stroke:#2FA4E7;stroke-width:3.125;"/><path d="M776.0417,576.8066 L786.4583,576.8066 C802.0833,576.8066 802.0833,643.4408 817.7083,643.4408 L828.125,643.4408 " fill="none" style="stroke:#2FA4E7;stroke-width:3.125;"/><path d="M509.375,476.8555 L519.7917,476.8555 C535.4167,476.8555 535.4167,576.8066 551.0417,576.8066 L561.4583,576.8066 " fill="none" style="stroke:#2FA4E7;stroke-width:3.125;"/><rect fill="url(#g2a9lruwne0ex0)" height="45.8008" rx="4.1667" ry="4.1667" style="stroke:#E9ECEF;stroke-width:1.0416666666666667;" width="296.875" x="561.4583" y="753.8086"/><text fill="#343A40" font-family="Verdana" font-size="12.5" lengthAdjust="spacing" textLength="265.625" x="577.0833" y="781.0364">Phase 4: Visualization and Interpretation</text><rect fill="url(#g2a9lruwne0ex0)" height="45.8008" rx="4.1667" ry="4.1667" style="stroke:#E9ECEF;stroke-width:1.0416666666666667;" width="111.4583" x="910.4167" y="687.1745"/><text fill="#343A40" font-family="Verdana" font-size="12.5" lengthAdjust="spacing" textLength="80.2083" x="926.0417" y="714.4023">Visualization</text><rect fill="url(#g2a9lruwne0ex0)" height="45.8008" rx="4.1667" ry="4.1667" style="stroke:#E9ECEF;stroke-width:1.0416666666666667;" width="217.7083" x="1073.9583" y="687.1745"/><text fill="#343A40" font-family="Verdana" font-size="12.5" lengthAdjust="spacing" textLength="186.4583" x="1089.5833" y="714.4023">Create Graphs or Heat Maps</text><path d="M1021.875,710.0749 L1032.2917,710.0749 C1047.9167,710.0749 1047.9167,710.0749 1063.5417,710.0749 L1073.9583,710.0749 " fill="none" style="stroke:#2FA4E7;stroke-width:3.125;"/><path d="M858.3333,776.709 L868.75,776.709 C884.375,776.709 884.375,710.0749 900,710.0749 L910.4167,710.0749 " fill="none" style="stroke:#2FA4E7;stroke-width:3.125;"/><rect fill="url(#g2a9lruwne0ex0)" height="45.8008" rx="4.1667" ry="4.1667" style="stroke:#E9ECEF;stroke-width:1.0416666666666667;" width="121.875" x="910.4167" y="787.1257"/><text fill="#343A40" font-family="Verdana" font-size="12.5" lengthAdjust="spacing" textLength="90.625" x="926.0417" y="814.3534">Interpretation</text><rect fill="url(#g2a9lruwne0ex0)" height="45.8008" rx="4.1667" ry="4.1667" style="stroke:#E9ECEF;stroke-width:1.0416666666666667;" width="275" x="1084.375" y="753.8086"/><text fill="#343A40" font-family="Verdana" font-size="12.5" lengthAdjust="spacing" textLength="243.75" x="1100" y="781.0364">Analyze Effect of Emojis on Sentiment</text><path d="M1032.2917,810.026 L1042.7083,810.026 C1058.3333,810.026 1058.3333,776.709 1073.9583,776.709 L1084.375,776.709 " fill="none" style="stroke:#2FA4E7;stroke-width:3.125;"/><rect fill="url(#g2a9lruwne0ex0)" height="45.8008" rx="4.1667" ry="4.1667" style="stroke:#E9ECEF;stroke-width:1.0416666666666667;" width="405.2083" x="1084.375" y="820.4427"/><text fill="#343A40" font-family="Verdana" font-size="12.5" lengthAdjust="spacing" textLength="373.9583" x="1100" y="847.6705">Determine Contribution of Emojis to Emotional Complexity</text><path d="M1032.2917,810.026 L1042.7083,810.026 C1058.3333,810.026 1058.3333,843.3431 1073.9583,843.3431 L1084.375,843.3431 " fill="none" style="stroke:#2FA4E7;stroke-width:3.125;"/><path d="M858.3333,776.709 L868.75,776.709 C884.375,776.709 884.375,810.026 900,810.026 L910.4167,810.026 " fill="none" style="stroke:#2FA4E7;stroke-width:3.125;"/><path d="M509.375,476.8555 L519.7917,476.8555 C535.4167,476.8555 535.4167,776.709 551.0417,776.709 L561.4583,776.709 " fill="none" style="stroke:#2FA4E7;stroke-width:3.125;"/><rect fill="url(#g2a9lruwne0ex0)" height="45.8008" rx="4.1667" ry="4.1667" style="stroke:#E9ECEF;stroke-width:1.0416666666666667;" width="289.5833" x="561.4583" y="887.0768"/><text fill="#343A40" font-family="Verdana" font-size="12.5" lengthAdjust="spacing" textLength="258.3333" x="577.0833" y="914.3046">Phase 5: Documentation and Reporting</text><rect fill="url(#g2a9lruwne0ex0)" height="45.8008" rx="4.1667" ry="4.1667" style="stroke:#E9ECEF;stroke-width:1.0416666666666667;" width="94.7917" x="903.125" y="887.0768"/><text fill="#343A40" font-family="Verdana" font-size="12.5" lengthAdjust="spacing" textLength="63.5417" x="918.75" y="914.3046">Reporting</text><rect fill="url(#g2a9lruwne0ex0)" height="45.8008" rx="4.1667" ry="4.1667" style="stroke:#E9ECEF;stroke-width:1.0416666666666667;" width="352.0833" x="1050" y="887.0768"/><text fill="#343A40" font-family="Verdana" font-size="12.5" lengthAdjust="spacing" textLength="320.8333" x="1065.625" y="914.3046">Document Process, Findings, and Interpretations</text><path d="M997.9167,909.9772 L1008.3333,909.9772 C1023.9583,909.9772 1023.9583,909.9772 1039.5833,909.9772 L1050,909.9772 " fill="none" style="stroke:#2FA4E7;stroke-width:3.125;"/><path d="M851.0417,909.9772 L861.4583,909.9772 C877.0833,909.9772 877.0833,909.9772 892.7083,909.9772 L903.125,909.9772 " fill="none" style="stroke:#2FA4E7;stroke-width:3.125;"/><path d="M509.375,476.8555 L519.7917,476.8555 C535.4167,476.8555 535.4167,909.9772 551.0417,909.9772 L561.4583,909.9772 " fill="none" style="stroke:#2FA4E7;stroke-width:3.125;"/><!--SRC=[xHhRSjiszbdw2coz3wqdoega94kQpavqevEkdV7ORlPn1oOXYJL5i01eHytutti0WY91GbBIg7dPS4OU4UVWt6-0zOOBpCGcIi8DJjl_46ko8IWWB8i9JjhdwEqsfR388uxSCRebJn5vvkWv4ck4ar1zePb0P4D_0nI-fiyeZ9PBmaWY48S_qGR-jC_FqSqQSuASCPfZWT6CnZ49H4I12G0lCJ1XKR8gMCZLym9hFz-5ufiZ-pJ8-1ZTqor_XIPfYXc9Nw659C1e4WKABUT-HrQCh7317lWpcgKr_QgqBN23lTOEJ7HNw8mc2OwtFAU0RXWD2ESD3K7EU8lUNzsWUnAia-ZtZEGRx7JEqU89nnaMf890bsWAJig5r6ZN1FECLR7U9O8aF19RPS0R6cC6BwNitXZClG6hWLcUOAF8mcqxTqAvQigIGwfCxWBAIA6QnFs3I2D9G-COpKagrhbs0kXn4GMmQjAS4q4On2DGZLP9j0IK921InxcEgu1KBDuRemyHpt0S_Q7SgPIJghAK4R7pi8cafMT4sl6IuNJD4MNeBRoZQvoRq4AaeX984YZ3vn60WF5T9TWDFMOq4Inwo9HuvHP1AvQHbep9HyCXVKWL26b9ibJjbgIK2GWZ9QFnThv3BwBj5V8XiG4CtvfsuUqt1D9UftxxZL49uE6FKI8Tlq4FE7XSGN0b8IGa64emd73fUL2snCeucGBfEx6D2LhYc9Ds_lpCvTA_smWnIWNw15yGcXwWAU4-M2s7dFc-hvQW5X5s5IMFnVhyOk7q50XMYLvr1qDlEjgjtg-Zu341Oo17hLrZjeeIv7JLsmqEfNtGGBtThN58d-LxzxM4ly0deI79HIvmdRvyKw93j2U48LSHgsjqvlgJtkAYKqeawGKuLSxyP96muBa4Cm7PGoYIKGe16-xm6kmNeyLiuTUDsVMysOMtMyszzK3ZK1DULsdQUJEYy_0W_mCEzNhUfDVTBmCdgk3GlQhL2Ends20j8X5BVxOKD89S1kUrffI18hSv1-NIoZCiuAKbMZkW0y2QT63vkT_rtKxXWLP5zJmc2efrJwc0UmuZl9h3HoOLI9eGyKpPe_pQQjNImgIp8rwtLtyq7Inc7OqWvGPQrPpH6rkrZ84iC5ZgI6wzj5kSi2Vb-nC9fOXYnc20-6HdsceckToZCa7jaHmkgnpyeJ_o9yREVrwzktnx_x_vvFO_3NLTfQuk47tuMcHyNpBIUOSJ8IhE4PW_dj88Lg-KDQkKQQ2KJw1GrEsbk5VfT5slsv_P3AIBGUxFCkUCtKKGDtVdaCxPT3ATJtrJ29sXal8cYWaND6a8Md0lSz4P56ygRoC1BJlOpzeKj103MCf674UQuxx2k4_U8AQSXFQjKwVNxtOjzixZu-T_wLPNTiMGB74M2ud_7iDihPyVFX0MuWJ_O4TLrYXAZ5l5IIDaUHmGgaJYkpvcF7bFBj6gBSoeToNA3Om4KH2b4FL5uCcdL-KsfH-hiE8nS6m8yFGhA1EP-xg2LfwpuM2u60sgsa5l95J0CA3RmwpfOLM0DR2QXpf6963Is3NqfwE1eu7LNVtPSE0k5E1TOzVSxOrw1R2wQ-Gx0sUg08kcXBsBeUTfe25X7c4IyBxPz_e3R-XhO7MNJl6NYfcCJgVGMesmiRKZ2rQHMKLaAfGIx_GTrE1UwwOlncWQanKCiLBDlMbk2m1BwhzKoVBdQ1FZl82OXjOrgwwFssxTIuCV7mOKMdCYCDN2S3H-acSrMst_QvrbYeij5zvaw47pl9C3VqslHQCtGBFRq2Hiq0THEcMYxT1injOmgyqhIgTbiJcXtfKIrdHQm-gw_vs6zJ65T-DEAH8OlCRb615EVi_aCDu8rOB0de1h7HhOZTWeDYng9nl9xsCpBlJG9M5LSNGTb-kMlZidCTvQrg-Y9P4ztXfN9j18nXreJsjegSiIgu0AOX7biZnoMOQOEUGhGEnfecqYorc1P-7S05SrgW0jijqMHxA3JYsnR7hle8VexzN_RjULQxbZoN5z0BQ7wnT6gaa-s5qhyjFbSPr58XYDls6Pa1TB9sq5nnW-oBsOVKkMU4Nogj-WHC7PArBZErAFILOzDRB5-QYUJvQXGmzNdLgBhuNvmU2MiRs49cBLere8lc0cCI9lay8nwfJTqMGGoVj1K83O5DXDkWOdT3QxS6Qk-nbz2dehUDa-ggbfk7Csd_S7QlWrjT7BXuslB-fQUof-npuFMgvexBQFQMOVCttNd_cBpXbHJury3hGLDPDyY0L-a9U-toxZWXZp4nR9LjuPZbs2slj4qMOiQJeH-UMvqLPq5Xcm_0B1gMb97tuZmId7oLF8Nw1_XlmP9y5fuy8oB5briiOf0sD2EQuTBFTSQ-QSZmoQNoLE2fHrJVcRX37vBMcSNtYtZXs7ZjMlOkaeHoOlZRwKeQLRxJ-uriiq5gSFjzgrxUUTFByoTU1Ob96_RGh4pDuEldwAM4RnNsXa5j9wi6ywE7WyfLc-_qZW-uy4llz8uF_ZHm8tCKx4hzTNw8amBjavhzskwxrsd1__Iq9GBqMEXvpXs1sCFG_zUZz34lvJ-yVBcol4QSR0JI4ujT3rf_Ol-0cZsqpPPOoIB8xRltouXXp97W1D6l_3TNkU_si4BPA0Ibd7GDhl3DjNC8naC07eZJEeKu9jyxS_0G00]--></g></svg>